<?xml version="1.0" encoding="UTF-8" standalone="no"?>
<!-- Created with Inkscape (http://www.inkscape.org/) -->

<svg
   xmlns:dc="http://purl.org/dc/elements/1.1/"
   xmlns:cc="http://creativecommons.org/ns#"
   xmlns:rdf="http://www.w3.org/1999/02/22-rdf-syntax-ns#"
   xmlns:svg="http://www.w3.org/2000/svg"
   xmlns="http://www.w3.org/2000/svg"
   version="1.1"
   width="319.87881pt"
   height="143.64848pt"
   viewBox="0 0 319.87881 143.64848"
   id="svg4882">
  <metadata
     id="metadata4935">
    <rdf:RDF>
      <cc:Work
         rdf:about="">
        <dc:format>image/svg+xml</dc:format>
        <dc:type
           rdf:resource="http://purl.org/dc/dcmitype/StillImage" />
        <dc:title></dc:title>
      </cc:Work>
    </rdf:RDF>
  </metadata>
  <defs
     id="defs4933" />
  <g
     id="surface1">
    <path
       d="m 119.95703,96.25 0,0.128906 -0.0625,0.128906 0,0.191407 -0.0625,0.128906 0,0.125 -0.0664,0.128906 0,0.128907 -0.0625,0.191406 -0.0664,0.128906 0,0.128906 -0.0625,0.125 -0.0625,0.06641 -0.0664,0.128907 -0.0625,0.125 -0.0664,0.128906 -0.19141,0.191406 -0.0625,0.128907 -0.0625,0.0625 -0.0664,0.128906 -0.1289,0.06641 -0.0625,0.125 -0.12891,0.06641 -0.1914,0.191406 -0.12891,0.0625 -0.0625,0.06641 -0.25781,0.125 -0.125,0.06641 -0.12891,0.0625 -0.12891,0.06641 -0.1289,0.0625 -0.125,0.0625 -0.12891,0.06641 -0.1289,0 -0.12891,0.0625 -0.19141,0.0625 -0.1289,0 -0.125,0.0664 -0.19532,0 -0.125,0.0625 -0.32031,0 -0.1914,0.0664 -2.05079,0 -0.2539,-0.0664 -0.38672,0 -0.25391,-0.0625 -0.1914,0 -0.25782,-0.0664 -0.1914,0 -0.25391,-0.0625 -0.19531,-0.0625 -0.25391,-0.06641 -0.25781,0 -0.19141,-0.0625 -0.2539,-0.0625 -0.25781,-0.06641 -0.25391,-0.0625 -0.25781,-0.06641 -0.25391,-0.0625 -0.25781,-0.0625 -0.25781,-0.128907 -0.25391,-0.06641 -0.25781,-0.0625 -0.25391,-0.0625 -0.25781,-0.128906 -0.32031,-0.0625 -0.25391,-0.128906 -0.25781,-0.06641 -0.32032,-0.125 -0.2539,-0.06641 -0.25781,-0.128906 -0.32032,-0.125 -0.2539,-0.128906 -0.32032,-0.0625 -0.32031,-0.128907 -0.25781,-0.128906 -0.31641,-0.128906 -0.32031,-0.128906 -0.25781,-0.125 -0.96094,-0.386719 -0.32031,-0.191406 -0.32031,-0.128907 -0.31641,-0.125 -0.32031,-0.191406 -0.64063,-0.257812 -0.32031,-0.191406 -0.32031,-0.128907 L 99.925781,95.355469 99.542969,95.226562 98.902344,94.84375 98.519531,94.652344 98.199219,94.523438 97.878906,94.332031 97.496094,94.136719 97.175781,93.945312 96.789062,93.753906 96.46875,93.5625 96.085938,93.371094 95.765625,93.113281 95.382812,92.921875 95.0625,92.730469 94.679688,92.539062 94.292969,92.28125 93.972656,92.089844 93.589844,91.898438 93.207031,91.644531 92.886719,91.449219 92.503906,91.195312 92.117188,91.003906 91.734375,90.746094 91.351562,90.554688 90.964844,90.296875 90.644531,90.042969 90.261719,89.851562 89.878906,89.59375 89.496094,89.339844 89.109375,89.082031 88.726562,88.828125 88.34375,88.570312 87.957031,88.316406 87.191406,87.800781 86.804688,87.546875 86.421875,87.289062 86.039062,87.035156 85.589844,86.777344 85.207031,86.523438 84.824219,86.265625 84.4375,85.945312 84.054688,85.691406 83.671875,85.433594 83.285156,85.113281 82.839844,84.859375 82.453125,84.601562 82.070312,84.28125 81.6875,84.027344 81.238281,83.707031 80.855469,83.449219 80.46875,83.128906 80.085938,82.8125 79.636719,82.554688 79.253906,82.234375 78.871094,81.980469 78.484375,81.660156 78.039062,81.339844 77.65625,81.019531 77.269531,80.761719 76.824219,80.441406 76.4375,80.121094 76.054688,79.800781 75.605469,79.484375 74.839844,78.84375 74.390625,78.523438 74.007812,78.203125 73.621094,77.882812 73.175781,77.5625 72.789062,77.242188 72.40625,76.921875 71.957031,76.601562 71.191406,75.960938 70.742188,75.644531 70.359375,75.257812 69.972656,74.9375 69.589844,74.617188 69.140625,74.296875 68.757812,73.914062 68.375,73.59375 67.925781,73.273438 67.542969,72.953125 67.160156,72.570312 66.773438,72.25 66.328125,71.867188 65.941406,71.546875 65.558594,71.226562 65.175781,70.84375 64.726562,70.523438 64.34375,70.136719 63.957031,69.820312 63.574219,69.5 63.191406,69.113281 62.742188,68.792969 62.359375,68.410156 61.972656,68.089844 61.207031,67.324219 60.824219,67.003906 60.4375,66.617188 60.054688,66.296875 59.671875,65.914062 59.285156,65.59375 58.519531,64.828125 58.132812,64.507812 57.75,64.121094 57.367188,63.800781 56.980469,63.417969 56.597656,63.035156 56.214844,62.714844 55.445312,61.945312 55.0625,61.625 54.742188,61.242188 54.359375,60.859375 53.972656,60.539062 53.589844,60.15625 53.269531,59.769531 52.886719,59.449219 52.503906,59.066406 52.183594,58.683594 51.796875,58.363281 51.476562,57.980469 51.09375,57.59375 50.710938,57.273438 50.390625,56.890625 49.6875,56.1875 49.367188,55.800781 48.980469,55.417969 48.664062,55.097656 48.34375,54.714844 47.957031,54.332031 47.636719,54.011719 47.316406,53.625 47,53.242188 46.613281,52.921875 46.292969,52.539062 45.972656,52.21875 45.65625,51.835938 45.335938,51.449219 45.015625,51.128906 44.695312,50.746094 44.375,50.425781 44.054688,50.042969 43.734375,49.722656 43.414062,49.339844 43.160156,48.953125 42.839844,48.632812 42.519531,48.25 42.199219,47.929688 41.941406,47.546875 41.621094,47.226562 41.367188,46.90625 41.046875,46.523438 40.789062,46.203125 40.46875,45.820312 40.214844,45.5 39.894531,45.179688 39.636719,44.792969 39.382812,44.476562 39.0625,44.089844 38.804688,43.769531 38.550781,43.449219 38.292969,43.128906 38.039062,42.746094 37.78125,42.425781 37.527344,42.105469 37.269531,41.785156 37.015625,41.464844 36.757812,41.082031 36.503906,40.761719 36.246094,40.441406 36.054688,40.121094 35.796875,39.800781 35.542969,39.484375 35.351562,39.164062 35.09375,38.84375 34.902344,38.523438 34.644531,38.203125 34.453125,37.882812 34.199219,37.5625 34.007812,37.242188 33.8125,36.921875 33.558594,36.601562 33.367188,36.347656 33.175781,36.027344 32.980469,35.707031 32.789062,35.386719 32.597656,35.128906 32.40625,34.8125 32.214844,34.492188 32.023438,34.234375 31.832031,33.914062 31.703125,33.660156 31.511719,33.339844 31.316406,33.082031 31.191406,32.761719 31,32.507812 30.871094,32.1875 30.679688,31.929688 30.550781,31.675781 30.359375,31.355469 30.230469,31.097656 30.101562,30.84375 29.972656,30.585938 29.847656,30.265625 29.65625,30.011719 29.527344,29.753906 29.398438,29.5 l -0.128907,-0.257812 -0.0625,-0.253907 -0.128906,-0.257812 -0.128906,-0.253907 -0.125,-0.257812 -0.06641,-0.257812 -0.128906,-0.253907 -0.125,-0.191406 -0.06641,-0.257813 -0.128906,-0.253906 -0.0625,-0.191406 -0.0625,-0.257812 -0.128906,-0.257813 -0.0625,-0.191406 -0.06641,-0.253907 -0.0625,-0.191406 -0.06641,-0.257812 -0.125,-0.382813 -0.06641,-0.257812 -0.0625,-0.191407 -0.06641,-0.191406 -0.0625,-0.257812 0,-0.191406 -0.0625,-0.191407 0,-0.191406 -0.06641,-0.191406 0,-0.191407 -0.0625,-0.195312 0,-0.191406 -0.0625,-0.191406 0,-1.664063 0.0625,-0.128906 0,-0.316407 0.0625,-0.128906 0,-0.191406 0.06641,-0.128906 0.0625,-0.128906 0,-0.128907 0.0625,-0.125 0.06641,-0.128906 0.0625,-0.128906 0.06641,-0.128907 0.0625,-0.128906 0.0625,-0.0625 0.06641,-0.128906 0.0625,-0.125 0.06641,-0.06641 0.0625,-0.128906 0.0625,-0.125 0.128906,-0.06641 0.0625,-0.128906 0.128906,-0.0625 0.06641,-0.0625 0.125,-0.128906 0.06641,-0.0625 0.128907,-0.06641 0.125,-0.0625 0.06641,-0.128906 0.125,-0.0625 0.128906,-0.06641 0.128907,-0.0625 0.128906,-0.06641 0.128906,0 0.125,-0.0625 0.128906,-0.0625 0.128906,-0.06641 0.191407,0 0.128906,-0.0625 0.125,-0.0625 0.195313,0 0.125,-0.06641 0.195312,0 0.125,-0.0625 0.511719,0 0.195312,-0.06641 1.277344,0 0.257813,0.06641 0.382812,0 0.191406,0.0625 0.449219,0 0.191406,0.06641 0.257813,0.0625 0.191406,0 0.253906,0.0625 0.257813,0 0.191406,0.06641 0.257813,0.0625 0.253906,0.0625 0.191406,0.06641 0.257812,0.0625 0.253907,0.06641 0.257812,0.0625 0.253907,0.0625 0.257812,0.06641 0.253906,0.0625 0.257813,0.06641 0.253906,0.125 0.257813,0.06641 0.320312,0.0625 0.253906,0.128906 0.257813,0.0625 0.320312,0.128907 0.253907,0.0625 0.257812,0.128906 0.320312,0.128906 0.253907,0.0625 0.320312,0.128906 0.257813,0.128906 0.320312,0.128907 0.320313,0.125 0.253906,0.128906 0.640625,0.257813 0.320312,0.125 0.257813,0.128906 0.320313,0.128906 0.316406,0.128906 0.320312,0.191406 0.320313,0.128907 0.320312,0.125 0.320313,0.195312 0.320312,0.125 0.320313,0.195313 0.320312,0.125 0.382813,0.191406 0.320312,0.128906 0.640625,0.382813 0.382813,0.128906 0.320312,0.191406 0.320313,0.195313 0.382812,0.191406 0.640625,0.382812 0.386719,0.191407 0.316406,0.191406 0.386719,0.191406 0.382812,0.195313 0.320313,0.191406 0.382813,0.253906 0.320312,0.191406 0.386719,0.195313 0.382812,0.191406 0.320313,0.253907 0.382812,0.191406 0.382813,0.257812 0.386719,0.191406 L 55,26.171875 l 0.382812,0.191406 0.382813,0.253907 0.382813,0.257812 0.386718,0.191406 0.382813,0.257813 0.382812,0.253906 0.386719,0.257813 0.320312,0.191406 0.382813,0.253906 0.382813,0.257812 0.386718,0.253907 0.382813,0.257812 0.449219,0.257813 0.382812,0.253906 0.382812,0.257812 0.382813,0.253907 0.386719,0.320312 0.382812,0.257813 0.382813,0.253906 0.386719,0.257812 0.382812,0.320313 0.449219,0.253906 0.382812,0.257813 0.382813,0.320312 0.386718,0.253906 0.382813,0.257813 0.449219,0.320313 0.382812,0.253906 0.765625,0.640625 0.449219,0.253906 0.382812,0.320313 0.386719,0.257812 0.382813,0.320312 0.449218,0.320313 0.382813,0.320313 0.382813,0.253906 0.449218,0.320312 0.382813,0.320313 0.386719,0.320312 0.445312,0.320313 0.386719,0.320312 0.382812,0.253906 0.449219,0.320313 0.765625,0.640625 0.449219,0.320312 0.382812,0.320313 0.386719,0.320313 0.445313,0.382812 0.386718,0.320312 0.382813,0.320313 0.449219,0.320313 0.765624,0.640624 0.449219,0.320313 0.382813,0.382813 0.382812,0.320312 0.386719,0.320312 0.445313,0.320313 0.386718,0.382813 0.382813,0.320312 0.449219,0.320312 0.382812,0.382813 0.382812,0.320313 0.386719,0.382812 0.445313,0.320312 0.386718,0.320313 0.382813,0.386719 0.382813,0.316406 0.386718,0.386719 0.445313,0.320312 0.386719,0.382813 0.382812,0.320312 0.382812,0.382813 0.382813,0.320312 0.386719,0.382813 0.382812,0.320312 0.449219,0.386719 0.382813,0.320313 0.382812,0.382812 0.386719,0.320312 0.765625,0.765626 0.386718,0.320312 0.382813,0.386719 0.382813,0.320312 0.382812,0.382813 0.386719,0.382812 0.382812,0.320313 0.320313,0.382812 0.382812,0.386719 0.386719,0.320312 1.855469,1.855469 0.382812,0.320313 0.320313,0.382812 0.382812,0.382813 L 95,58.425781 l 0.316406,0.386719 0.386719,0.382812 0.703125,0.703126 0.320312,0.382812 0.382813,0.320312 0.320313,0.386719 0.703124,0.703125 0.320313,0.382813 0.386719,0.382812 0.320312,0.320313 0.316406,0.386718 0.386719,0.382813 0.320309,0.320313 0.32032,0.382812 0.32031,0.320312 0.31641,0.382813 0.32031,0.386719 0.32031,0.320312 0.32031,0.382813 0.32032,0.320312 0.64062,0.765625 0.32031,0.320313 0.32032,0.386719 0.32031,0.320312 0.2539,0.382812 0.32032,0.320313 0.32031,0.382813 0.32031,0.320312 0.25781,0.382812 0.31641,0.320313 0.25781,0.320313 0.32032,0.382812 0.2539,0.320312 0.32031,0.386719 0.25782,0.320313 0.2539,0.320312 0.32032,0.382813 0.25781,0.320312 0.2539,0.320313 0.25782,0.382812 0.25781,0.320313 0.31641,0.320312 0.25781,0.382813 0.25781,0.320312 0.25391,0.320313 0.1914,0.320312 0.25782,0.320313 0.2539,0.320312 0.25781,0.382813 0.25391,0.320312 0.19141,0.320313 0.51562,0.640625 0.19141,0.320312 0.2539,0.320313 0.19141,0.316406 0.25781,0.320312 0.19141,0.320313 0.19141,0.257813 0.25781,0.320312 0.57422,0.960938 0.1914,0.253906 0.19532,0.320312 0.38281,0.640625 0.1914,0.253907 0.19141,0.320312 0.19141,0.257812 0.1914,0.320313 0.12891,0.320313 0.19141,0.253906 0.19531,0.257812 0.125,0.320313 0.1914,0.253906 0.12891,0.320313 0.19141,0.257812 0.1289,0.253906 0.12891,0.320313 0.12891,0.257812 0.1914,0.253907 0.12891,0.257812 0.125,0.253906 0.1289,0.320313 0.12891,0.257812 0.12891,0.253907 0.125,0.257812 0.1289,0.253906 0.0664,0.257813 0.125,0.191406 0.12891,0.257813 0.0625,0.253906 0.1289,0.257812 0.0664,0.253906 0.125,0.191407 0.0664,0.257812 0.12891,0.253907 0.0625,0.195312 0.0625,0.253906 0.0664,0.191406 0.125,0.257813 0.0664,0.191406 0.0625,0.253907 0.0664,0.195312 0.0625,0.191406 0,0.253906 0.0625,0.191407 0.0664,0.195312 0.0625,0.191407 0,0.191406 0.0664,0.253906 0,0.195312 0.0625,0.191407 0,0.191406 0.0625,0.128906 0,0.574219 0.0664,0.191406 0,0.640625 -0.0664,0.191407 0,0.320312 0.008,0"
       id="path4885"
       style="fill:#ff0000;fill-opacity:0.25097997;fill-rule:nonzero;stroke:none" />
    <path
       d="m 90.554688,75.195312 c 0.0039,2.5 -2.273438,4.773438 -4.773438,4.773438 -2.5,0 -4.773438,-2.273438 -4.773438,-4.773438 0,-2.5 2.273438,-4.777343 4.773438,-4.777343 2.5,0 4.777344,2.277343 4.773438,4.777343 z"
       id="path4887"
       style="fill:#ffffff;fill-opacity:1;fill-rule:evenodd;stroke:#000000;stroke-width:1.60000002;stroke-linecap:butt;stroke-linejoin:miter;stroke-miterlimit:4;stroke-opacity:1" />
    <path
       d="m 251.5,65.5 6,0 m -3,-3 0,6"
       id="path4889"
       style="fill:none;stroke:#000000;stroke-width:1;stroke-linecap:butt;stroke-linejoin:miter;stroke-miterlimit:4;stroke-opacity:1" />
    <path
       d="m 267.11719,67.523438 0,1.023437 -0.0625,0.128906 0,0.511719 -0.0625,0.128906 0,0.257813 -0.0664,0.125 0,0.257812 -0.0625,0.128907 0,0.253906 -0.0664,0.128906 0,0.128906 -0.0625,0.125 0,0.128906 -0.0625,0.128907 0,0.128906 -0.0664,0.128906 0,0.0625 -0.0625,0.128907 0,0.125 -0.0664,0.128906 0,0.128906 -0.125,0.257812 0,0.125 -0.0664,0.06641 0,0.125 -0.125,0.257812 -0.0664,0.128907 0,0.128906 -0.0625,0.0625 -0.0664,0.128906 -0.0625,0.125 0,0.128906 -0.0625,0.06641 -0.0664,0.125 -0.0625,0.128907 -0.0664,0.128906 -0.0625,0.0625 0,0.128906 -0.0625,0.128907 -0.0664,0.128906 -0.0625,0.0625 -0.0625,0.128906 -0.0664,0.128906 -0.0625,0.0625 -0.0664,0.128906 -0.0625,0.125 -0.0625,0.06641 -0.0664,0.128906 -0.0625,0.0625 -0.0664,0.128906 -0.0625,0.128907 -0.0625,0.0625 -0.0664,0.128906 -0.125,0.0625 -0.0664,0.128906 -0.0625,0.0625 -0.0664,0.128906 -0.0625,0.0625 -0.0625,0.128906 -0.0664,0.06641 -0.1289,0.125 -0.0625,0.06641 -0.0625,0.125 -0.0664,0.06641 -0.125,0.0625 -0.0664,0.128907 -0.0625,0.0625 -0.0664,0.128906 -0.125,0.06641 -0.0664,0.0625 -0.0625,0.128906 -0.1289,0.0625 -0.19141,0.191406 -0.0625,0.06641 -0.0664,0.0625 -0.1289,0.0625 -0.0625,0.128906 -0.12891,0.0625 -0.0625,0.06641 -0.0664,0.0625 -0.125,0.06641 -0.0664,0.125 -0.125,0.06641 -0.0664,0.0625 -0.1289,0.06641 -0.0625,0.0625 -0.12891,0.0625 -0.0625,0.06641 -0.25781,0.125 -0.0625,0.06641 -0.12891,0.0625 -0.0625,0.06641 -0.1289,0.0625 -0.0625,0.0625 -0.12891,0.06641 -0.12891,0.0625 -0.0625,0.06641 -0.25781,0.125 -0.0625,0.06641 -0.25781,0.125 -0.0625,0 -0.12891,0.06641 -0.1289,0.0625 -0.0625,0.06641 -0.12891,0 -0.12891,0.0625 -0.0625,0.0625 -0.1289,0.06641 -0.125,0 -0.12891,0.0625 -0.0664,0.06641 -0.125,0 -0.25781,0.125 -0.1289,0 -0.0625,0.06641 -0.12891,0 -0.12891,0.0625 -0.125,0 -0.1289,0.0625 -0.0664,0 -0.125,0.06641 -0.12891,0 -0.1289,0.0625 -0.25391,0 -0.0664,0.06641 -0.12891,0 -0.125,0.0625 -0.38672,0 -0.125,0.0625 -0.32031,0 -0.12891,0.06641 -0.64062,0 -0.12891,0.0625 -1.21484,0 -0.12891,-0.0625 -0.57422,0 -0.1289,-0.06641 -0.38282,0 -0.1289,-0.0625 -0.38282,0 -0.1289,-0.0625 -0.0625,0 -0.12891,-0.06641 -0.25781,0 -0.12891,-0.0625 -0.125,0 -0.1289,-0.06641 -0.12891,0 -0.12891,-0.0625 -0.125,0 -0.1289,-0.0625 -0.0664,0 -0.125,-0.06641 -0.1289,-0.0625 -0.12891,0 -0.12891,-0.0625 -0.125,0 -0.1289,-0.06641 -0.12891,-0.0625 -0.12891,0 -0.0625,-0.06641 -0.25781,-0.125 -0.125,0 -0.1289,-0.06641 -0.12891,-0.0625 -0.0625,-0.06641 -0.12891,-0.0625 -0.1289,0 -0.12891,-0.0625 -0.125,-0.06641 -0.12891,-0.0625 -0.0664,-0.0625 -0.125,-0.06641 -0.12891,-0.0625 -0.1289,-0.06641 -0.12891,-0.0625 -0.0625,-0.0625 -0.12891,-0.06641 -0.1289,-0.0625 -0.125,-0.06641 -0.0664,-0.0625 -0.125,-0.0625 -0.12891,-0.06641 -0.0664,-0.0625 -0.125,-0.0625 -0.12891,-0.06641 -0.1289,-0.0625 -0.0625,-0.06641 -0.12891,-0.125 -0.12891,-0.06641 -0.0625,-0.0625 -0.1289,-0.06641 -0.12891,-0.0625 -0.0625,-0.128906 -0.12891,-0.0625 -0.0625,-0.0625 -0.1289,-0.06641 -0.19141,-0.191406 -0.1289,-0.0625 -0.0625,-0.128906 -0.12891,-0.0625 -0.12891,-0.06641 -0.0625,-0.128906 -0.1289,-0.0625 -0.0625,-0.128907 -0.12891,-0.0625 -0.64062,-0.640625 -0.0625,-0.128906 -0.12891,-0.0625 -0.0664,-0.128906 -0.125,-0.0625 -0.0664,-0.128906 -0.19141,-0.191407 -0.0625,-0.128906 -0.0664,-0.0625 -0.125,-0.128906 -0.0664,-0.128907 -0.25391,-0.253906 -0.0664,-0.128906 -0.0625,-0.128906 -0.12891,-0.0625 -0.0625,-0.128906 -0.0664,-0.128907 -0.0625,-0.128906 -0.1914,-0.191406 -0.0664,-0.128907 -0.0625,-0.125 -0.0625,-0.06641 -0.0664,-0.128906 -0.0625,-0.125 -0.0625,-0.128906 -0.0664,-0.0625 -0.0625,-0.128906 -0.0664,-0.128907 -0.125,-0.257812 -0.0664,-0.125 -0.0625,-0.06641 -0.0664,-0.125 -0.125,-0.257812 -0.0664,-0.128906 -0.0625,-0.128906 -0.0625,-0.125 -0.0664,-0.128907 -0.0625,-0.128906 -0.0664,-0.0625 0,-0.128906 -0.125,-0.257813 -0.0664,-0.125 -0.0625,-0.128906 0,-0.128906 -0.0664,-0.128906 -0.0625,-0.125 -0.0625,-0.128907 0,-0.128906 -0.0664,-0.128906 -0.0625,-0.125 0,-0.128907 -0.0625,-0.128906 -0.0664,-0.128906 0,-0.125 -0.0625,-0.128906 0,-0.128906 -0.0664,-0.128907 0,-0.128906 -0.0625,-0.125 0,-0.128906 -0.0625,-0.128907 0,-0.128906 -0.0664,-0.125 0,-0.128906 -0.0625,-0.128906 0,-0.128906 -0.0664,-0.125 0,-0.257813 -0.0625,-0.128906 0,-0.253907 -0.0586,-0.128906 0,-0.382812 -0.0664,-0.128906 0,-0.703126 -0.0664,-0.128906 0,-1.792968 0.0625,-0.128907 0,-0.640625 0.0664,-0.125 0,-0.386718 0.0625,-0.125 0,-0.257813 0.0625,-0.128906 0,-0.253907 0.0664,-0.128906 0,-0.128906 0.0625,-0.125 0,-0.128906 0.0664,-0.128906 0,-0.0625 0.0625,-0.128907 0,-0.128906 0.0625,-0.128906 0,-0.125 0.0664,-0.128907 0,-0.128906 0.0625,-0.128906 0,-0.128906 0.0664,-0.0625 0.0625,-0.128906 0,-0.125 0.0625,-0.128907 0.0664,-0.128906 0,-0.128906 0.0625,-0.128907 0.0625,-0.0625 0.0664,-0.128906 0,-0.125 0.0625,-0.128906 0.0664,-0.06641 0.0625,-0.125 0.0625,-0.128906 0,-0.128907 0.0664,-0.0625 0.0625,-0.128906 0.0664,-0.128906 0.0625,-0.128907 0.0625,-0.0625 0.0664,-0.128906 0.0625,-0.128906 0.0625,-0.0625 0.0664,-0.128906 0.0625,-0.125 0.0664,-0.06641 0.0625,-0.128907 0.0625,-0.125 0.0664,-0.06641 0.0625,-0.128906 0.0664,-0.0625 0.0625,-0.128907 0.0625,-0.0625 0.0664,-0.128906 0.0625,-0.128906 0.0625,-0.0625 0.0664,-0.128906 0.1289,-0.0625 0.0625,-0.128906 0.12891,-0.128907 0.0625,-0.125 0.12891,-0.06641 0.0625,-0.128906 0.0664,-0.0625 0.0625,-0.128907 0.12891,-0.0625 0.0625,-0.06641 0.0664,-0.125 0.125,-0.06641 0.0664,-0.0625 0.0625,-0.128906 0.12891,-0.0625 0.0625,-0.06641 0.0664,-0.125 0.125,-0.06641 0.0664,-0.0625 0.12891,-0.06641 0.0625,-0.125 0.0625,-0.06641 0.1289,-0.0625 0.0664,-0.0625 0.125,-0.06641 0.0664,-0.0625 0.125,-0.128906 0.0664,-0.0625 0.12891,-0.06641 0.0625,-0.0625 0.1289,-0.0625 0.0625,-0.06641 0.12891,-0.0625 0.12891,-0.06641 0.0625,-0.0625 0.1289,-0.0625 0.0625,-0.06641 0.12891,-0.0625 0.1289,-0.06641 0.0625,-0.0625 0.12891,-0.0625 0.0625,-0.06641 0.25781,-0.125 0.0625,0 0.12891,-0.06641 0.12891,-0.0625 0.0625,-0.06641 0.1289,-0.0625 0.12891,0 0.125,-0.0625 0.0664,-0.06641 0.12891,-0.0625 0.125,0 0.0664,-0.06641 0.125,-0.0625 0.1289,0 0.12891,-0.0625 0.12891,-0.06641 0.0625,0 0.1289,-0.0625 0.12891,0 0.125,-0.0625 0.0664,-0.06641 0.12891,0 0.125,-0.0625 0.25781,0 0.12891,-0.06641 0.0625,0 0.12891,-0.0625 0.1289,0 0.125,-0.0625 0.25781,0 0.12891,-0.0625 0.32031,0 0.125,-0.0625 0.38672,0 0.125,-0.06641 2.4336,0 0.1289,0.06641 0.38281,0 0.0664,0.0625 0.38281,0 0.12891,0.0625 0.25391,0 0.1289,0.0625 0.12891,0 0.125,0.0625 0.1289,0 0.12891,0.06641 0.19141,0 0.1289,0.0625 0.12891,0 0.125,0.06641 0.12891,0.0625 0.1289,0 0.12891,0.0625 0.125,0 0.1289,0.06641 0.0664,0.0625 0.125,0 0.12891,0.0625 0.1289,0.06641 0.12891,0 0.125,0.0625 0.12891,0.06641 0.0664,0.0625 0.125,0 0.12891,0.0625 0.1289,0.06641 0.12891,0.0625 0.125,0.06641 0.0664,0 0.1289,0.0625 0.125,0.0625 0.12891,0.06641 0.12891,0.0625 0.0625,0.0625 0.1289,0.06641 0.12891,0.0625 0.1289,0.06641 0.125,0.0625 0.0664,0.0625 0.12891,0.06641 0.125,0.0625 0.1289,0.06641 0.0625,0.0625 0.12891,0.0625 0.12891,0.06641 0.1914,0.191406 0.12891,0.0625 0.0625,0.06641 0.25781,0.125 0.0625,0.06641 0.12891,0.125 0.1289,0.06641 0.0625,0.0625 0.12891,0.06641 0.12891,0.125 0.0625,0.06641 0.1289,0.0625 0.0625,0.128906 0.12891,0.0625 0.1289,0.06641 0.0625,0.125 0.12891,0.06641 0.64063,0.640626 0.125,0.0625 0.0664,0.128906 0.19141,0.191406 0.0625,0.128906 0.1289,0.0625 0.0664,0.128906 0.38281,0.382813 0.0625,0.128906 0.0664,0.0625 0.125,0.128907 0.0664,0.06641 0.0625,0.125 0.0664,0.128906 0.125,0.0625 0.0664,0.128906 0.0625,0.128906 0.1914,0.191407 0.0664,0.128906 0.0625,0.128906 0.0625,0.0625 0.0664,0.128907 0.0625,0.128906 0.0664,0.125 0.125,0.06641 0.0664,0.128906 0.0625,0.125 0.0625,0.128906 0.0664,0.128907 0.0625,0.0625 0.0664,0.128906 0.125,0.257813 0.0664,0.125 0.0625,0.128906 0.0664,0.0625 0.125,0.257812 0.0664,0.128906 0.0625,0.128907 0,0.125 0.0625,0.128906 0.0664,0.128906 0.0625,0.128907 0.0664,0.0625 0.0625,0.128906 0,0.128906 0.0625,0.125 0.0664,0.128906 0.0625,0.128906 0,0.128907 0.0664,0.125 0.125,0.257812 0,0.128907 0.0664,0.125 0,0.128906 0.125,0.257812 0,0.125 0.0664,0.128906 0,0.128907 0.0625,0.128906 0,0.128906 0.0664,0.125 0,0.128907 0.0625,0.128906 0,0.128906 0.0625,0.125 0,0.128906 0.0664,0.128906 0,0.253907 0.0625,0.128906 0,0.257813 0.0664,0.128906 0,0.253906 0.0625,0.128906 0,0.574219 0.0625,0.128906 0,1.152344 0.0664,0.128906 -0.0664,0.128907 0,0.125 0.008,0"
       id="path4891"
       style="fill:#0000ff;fill-opacity:0.25097997;fill-rule:nonzero;stroke:none" />
    <path
       d="m 258.83594,65.734375 c 0,2.5 -2.27344,4.773437 -4.77344,4.773437 -2.5,0 -4.77344,-2.273437 -4.77344,-4.773437 0,-2.503906 2.27344,-4.777344 4.77344,-4.777344 2.5,0 4.77344,2.273438 4.77344,4.777344 z"
       id="path4893"
       style="fill:#ffffff;fill-opacity:1;fill-rule:evenodd;stroke:#000000;stroke-width:1.60000002;stroke-linecap:butt;stroke-linejoin:miter;stroke-miterlimit:4;stroke-opacity:1" />
    <path
       d="m 2.859375,59.53125 1.625,0 2.046875,5.453125 2.046875,-5.453125 1.625,0 0,8.015625 -1.0625,0 0,-7.046875 -2.0625,5.5 -1.09375,0 -2.078125,-5.5 0,7.046875 -1.046875,0 z m 14.777344,4.765625 0,0.484375 -4.546875,0 c 0.03906,0.679688 0.242187,1.195312 0.609375,1.546875 0.363281,0.355469 0.875,0.53125 1.53125,0.53125 0.382812,0 0.753906,-0.04687 1.109375,-0.140625 0.351562,-0.09375 0.707031,-0.226562 1.0625,-0.40625 l 0,0.921875 c -0.355469,0.15625 -0.71875,0.273437 -1.09375,0.34375 -0.375,0.08203 -0.75,0.125 -1.125,0.125 -0.96875,0 -1.734375,-0.273437 -2.296875,-0.828125 -0.554688,-0.5625 -0.828125,-1.320312 -0.828125,-2.28125 0,-0.976562 0.265625,-1.753906 0.796875,-2.328125 0.53125,-0.582031 1.25,-0.875 2.15625,-0.875 0.800781,0 1.4375,0.261719 1.90625,0.78125 0.476562,0.523437 0.71875,1.230469 0.71875,2.125 z m -1,-0.296875 c 0,-0.539062 -0.152344,-0.972656 -0.453125,-1.296875 C 15.890625,62.382812 15.5,62.21875 15.011719,62.21875 c -0.554688,0 -0.996094,0.15625 -1.328125,0.46875 C 13.359375,63 13.171875,63.4375 13.121094,64 z m 6.703125,-1.5625 0,-3.25 0.984375,0 0,8.359375 -0.984375,0 0,-0.90625 c -0.210938,0.367187 -0.476563,0.636719 -0.796875,0.8125 -0.3125,0.164063 -0.695313,0.25 -1.140625,0.25 -0.71875,0 -1.308594,-0.285156 -1.765625,-0.859375 -0.460938,-0.582031 -0.6875,-1.347656 -0.6875,-2.296875 0,-0.945313 0.226562,-1.707031 0.6875,-2.28125 0.457031,-0.582031 1.046875,-0.875 1.765625,-0.875 0.445312,0 0.828125,0.08984 1.140625,0.265625 0.320312,0.167969 0.585937,0.429688 0.796875,0.78125 z m -3.375,2.109375 c 0,0.730469 0.148437,1.304687 0.453125,1.71875 0.300781,0.40625 0.710937,0.609375 1.234375,0.609375 0.519531,0 0.929687,-0.203125 1.234375,-0.609375 0.300781,-0.414063 0.453125,-0.988281 0.453125,-1.71875 0,-0.726563 -0.152344,-1.296875 -0.453125,-1.703125 -0.304688,-0.414062 -0.714844,-0.625 -1.234375,-0.625 -0.523438,0 -0.933594,0.210938 -1.234375,0.625 -0.304688,0.40625 -0.453125,0.976562 -0.453125,1.703125 z m 6.515625,-3.015625 1,0 0,6.015625 -1,0 z m 0,-2.34375 1,0 0,1.25 -1,0 z m 5.84375,5.328125 c -0.792969,0 -1.34375,0.09375 -1.65625,0.28125 -0.304688,0.1875 -0.453125,0.5 -0.453125,0.9375 0,0.34375 0.113281,0.621094 0.34375,0.828125 0.226562,0.210938 0.539062,0.3125 0.9375,0.3125 0.550781,0 0.988281,-0.191406 1.3125,-0.578125 0.332031,-0.394531 0.5,-0.910156 0.5,-1.546875 l 0,-0.234375 z m 1.96875,-0.40625 0,3.4375 -0.984375,0 0,-0.90625 c -0.21875,0.367187 -0.5,0.636719 -0.84375,0.8125 -0.335938,0.164063 -0.746094,0.25 -1.234375,0.25 -0.617188,0 -1.105469,-0.171875 -1.46875,-0.515625 -0.367188,-0.34375 -0.546875,-0.804688 -0.546875,-1.390625 0,-0.675781 0.222656,-1.1875 0.671875,-1.53125 C 30.34375,63.921875 31.027344,63.75 31.933594,63.75 l 1.375,0 0,-0.09375 c 0,-0.457031 -0.152344,-0.8125 -0.453125,-1.0625 -0.292969,-0.25 -0.710938,-0.375 -1.25,-0.375 -0.34375,0 -0.683594,0.04297 -1.015625,0.125 -0.324219,0.08594 -0.636719,0.210938 -0.9375,0.375 l 0,-0.90625 c 0.363281,-0.144531 0.71875,-0.25 1.0625,-0.3125 0.34375,-0.07031 0.671875,-0.109375 0.984375,-0.109375 0.875,0 1.523437,0.226563 1.953125,0.671875 0.425781,0.449219 0.640625,1.132812 0.640625,2.046875 z m 7.164062,-0.1875 0,3.625 -0.984375,0 0,-3.59375 c 0,-0.570313 -0.109375,-1 -0.328125,-1.28125 -0.21875,-0.28125 -0.554687,-0.421875 -1,-0.421875 -0.53125,0 -0.953125,0.171875 -1.265625,0.515625 -0.304687,0.335937 -0.453125,0.792969 -0.453125,1.375 l 0,3.40625 -1,0 0,-6.015625 1,0 0,0.9375 c 0.226563,-0.363281 0.503907,-0.632812 0.828125,-0.8125 0.320313,-0.175781 0.691406,-0.265625 1.109375,-0.265625 0.6875,0 1.207031,0.214844 1.5625,0.640625 0.351563,0.429688 0.53125,1.058594 0.53125,1.890625 z"
       id="path4895"
       style="fill:#000000;fill-opacity:1;fill-rule:nonzero;stroke:none" />
    <path
       d="m 5.15625,76.21875 c -0.53125,0 -0.953125,0.210938 -1.265625,0.625 -0.304687,0.417969 -0.453125,0.984375 -0.453125,1.703125 0,0.71875 0.148438,1.289063 0.453125,1.703125 0.300781,0.40625 0.722656,0.609375 1.265625,0.609375 0.519531,0 0.929688,-0.203125 1.234375,-0.609375 0.3125,-0.414062 0.46875,-0.984375 0.46875,-1.703125 0,-0.71875 -0.15625,-1.285156 -0.46875,-1.703125 -0.304687,-0.414062 -0.714844,-0.625 -1.234375,-0.625 z m 0,-0.828125 c 0.851562,0 1.523438,0.28125 2.015625,0.84375 0.488281,0.554687 0.734375,1.324219 0.734375,2.3125 0,0.980469 -0.246094,1.75 -0.734375,2.3125 -0.492187,0.5625 -1.164063,0.84375 -2.015625,0.84375 -0.867188,0 -1.542969,-0.28125 -2.03125,-0.84375 -0.492188,-0.5625 -0.734375,-1.332031 -0.734375,-2.3125 0,-0.988281 0.242187,-1.757813 0.734375,-2.3125 0.488281,-0.5625 1.164062,-0.84375 2.03125,-0.84375 z m 4.410156,3.78125 0,-3.640625 0.984375,0 0,3.609375 c 0,0.5625 0.109375,0.992187 0.328125,1.28125 0.226563,0.28125 0.5625,0.421875 1,0.421875 0.539063,0 0.960938,-0.164062 1.265625,-0.5 0.3125,-0.34375 0.46875,-0.8125 0.46875,-1.40625 l 0,-3.40625 0.984375,0 0,6.015625 -0.984375,0 0,-0.921875 c -0.242187,0.367188 -0.523437,0.636719 -0.84375,0.8125 -0.3125,0.175781 -0.679687,0.265625 -1.09375,0.265625 -0.6875,0 -1.214843,-0.210937 -1.578125,-0.640625 -0.355468,-0.4375 -0.53125,-1.066406 -0.53125,-1.890625 z m 2.484375,-3.78125 z m 5.703125,-1.5625 0,1.703125 2.03125,0 0,0.765625 -2.03125,0 0,3.265625 c 0,0.492188 0.06641,0.808594 0.203125,0.953125 0.132813,0.136719 0.40625,0.203125 0.8125,0.203125 l 1.015625,0 0,0.828125 -1.015625,0 c -0.761719,0 -1.289062,-0.140625 -1.578125,-0.421875 -0.292968,-0.289062 -0.4375,-0.8125 -0.4375,-1.5625 l 0,-3.265625 -0.71875,0 0,-0.765625 0.71875,0 0,-1.703125 z m 7.742188,1.9375 0,0.921875 c -0.273438,-0.15625 -0.546875,-0.269531 -0.828125,-0.34375 -0.28125,-0.08203 -0.570313,-0.125 -0.859375,-0.125 -0.636719,0 -1.132813,0.203125 -1.484375,0.609375 -0.355469,0.40625 -0.53125,0.980469 -0.53125,1.71875 0,0.730469 0.175781,1.296875 0.53125,1.703125 0.351562,0.40625 0.847656,0.609375 1.484375,0.609375 0.289062,0 0.578125,-0.03516 0.859375,-0.109375 0.28125,-0.07031 0.554687,-0.1875 0.828125,-0.34375 l 0,0.90625 c -0.273438,0.136719 -0.558594,0.234375 -0.859375,0.296875 -0.292969,0.0625 -0.605469,0.09375 -0.9375,0.09375 -0.90625,0 -1.625,-0.28125 -2.15625,-0.84375 -0.53125,-0.570313 -0.796875,-1.34375 -0.796875,-2.3125 0,-0.976563 0.265625,-1.75 0.796875,-2.3125 0.539062,-0.5625 1.28125,-0.84375 2.21875,-0.84375 0.3125,0 0.609375,0.03125 0.890625,0.09375 0.289062,0.0625 0.570312,0.15625 0.84375,0.28125 z m 4.183594,0.453125 c -0.53125,0 -0.953126,0.210938 -1.265626,0.625 -0.304687,0.417969 -0.453124,0.984375 -0.453124,1.703125 0,0.71875 0.148437,1.289063 0.453124,1.703125 0.300782,0.40625 0.722657,0.609375 1.265626,0.609375 0.519531,0 0.929687,-0.203125 1.234374,-0.609375 0.3125,-0.414062 0.46875,-0.984375 0.46875,-1.703125 0,-0.71875 -0.15625,-1.285156 -0.46875,-1.703125 -0.304687,-0.414062 -0.714843,-0.625 -1.234374,-0.625 z m 0,-0.828125 c 0.851562,0 1.523437,0.28125 2.015624,0.84375 0.488282,0.554687 0.734376,1.324219 0.734376,2.3125 0,0.980469 -0.246094,1.75 -0.734376,2.3125 -0.492187,0.5625 -1.164062,0.84375 -2.015624,0.84375 -0.867188,0 -1.542969,-0.28125 -2.03125,-0.84375 -0.492188,-0.5625 -0.734376,-1.332031 -0.734376,-2.3125 0,-0.988281 0.242188,-1.757813 0.734376,-2.3125 0.488281,-0.5625 1.164062,-0.84375 2.03125,-0.84375 z m 9.191406,1.296875 c 0.25,-0.445312 0.546875,-0.773438 0.890625,-0.984375 0.34375,-0.207031 0.75,-0.3125 1.21875,-0.3125 0.625,0 1.101562,0.21875 1.4375,0.65625 0.34375,0.4375 0.515625,1.0625 0.515625,1.875 l 0,3.625 -1,0 0,-3.59375 c 0,-0.582031 -0.105469,-1.007813 -0.3125,-1.28125 C 41.421875,76.390625 41.113281,76.25 40.699219,76.25 c -0.511719,0 -0.917969,0.171875 -1.21875,0.515625 -0.292969,0.335937 -0.4375,0.792969 -0.4375,1.375 l 0,3.40625 -1,0 0,-3.59375 c 0,-0.582031 -0.105469,-1.007813 -0.3125,-1.28125 C 37.53125,76.390625 37.21875,76.25 36.792969,76.25 c -0.5,0 -0.902344,0.171875 -1.203125,0.515625 -0.292969,0.335937 -0.4375,0.792969 -0.4375,1.375 l 0,3.40625 -1,0 0,-6.015625 1,0 0,0.9375 c 0.21875,-0.375 0.484375,-0.644531 0.796875,-0.8125 0.320312,-0.175781 0.695312,-0.265625 1.125,-0.265625 0.4375,0 0.804687,0.109375 1.109375,0.328125 0.3125,0.21875 0.539062,0.542969 0.6875,0.96875 z m 11.382812,1.609375 0,0.484375 -4.546875,0 c 0.03906,0.679688 0.242188,1.195312 0.609375,1.546875 0.363282,0.355469 0.875,0.53125 1.53125,0.53125 0.382813,0 0.753906,-0.04687 1.109375,-0.140625 0.351563,-0.09375 0.707031,-0.226562 1.0625,-0.40625 l 0,0.921875 c -0.355469,0.15625 -0.71875,0.273437 -1.09375,0.34375 -0.375,0.08203 -0.75,0.125 -1.125,0.125 -0.96875,0 -1.734375,-0.273437 -2.296875,-0.828125 -0.554687,-0.5625 -0.828125,-1.320312 -0.828125,-2.28125 0,-0.976562 0.265625,-1.753906 0.796875,-2.328125 0.53125,-0.582031 1.25,-0.875 2.15625,-0.875 0.800782,0 1.4375,0.261719 1.90625,0.78125 0.476563,0.523437 0.71875,1.230469 0.71875,2.125 z m -1,-0.296875 c 0,-0.539062 -0.152344,-0.972656 -0.453125,-1.296875 -0.292969,-0.320313 -0.683593,-0.484375 -1.171875,-0.484375 -0.554687,0 -0.996094,0.15625 -1.328125,0.46875 C 45.976562,77 45.789062,77.4375 45.738281,78 z"
       id="path4897"
       style="fill:#000000;fill-opacity:1;fill-rule:nonzero;stroke:none" />
    <path
       d="m 142.41016,58.558594 c 0,-0.609375 -0.15625,-1.046875 -0.375,-1.046875 -2.40625,0 -4.15625,-4.75 -4.15625,-9.765625 l 0,-21.640625 c 0,-6.3125 -2.92188,-10.8125 -6.28125,-10.8125 -0.21875,0 -0.375,0.4375 -0.375,1.046875 0,0.59375 0.15625,1.03125 0.375,1.03125 2.40625,0 4.15625,4.234375 4.15625,8.734375 l 0,21.640625 c 0,5.015625 1.54687,8.984375 3.6875,10.8125 -2.14063,1.8125 -3.6875,5.796875 -3.6875,10.8125 l 0,21.625 c 0,4.5 -1.75,8.734375 -4.15625,8.734375 -0.21875,0 -0.375,0.437501 -0.375,1.046871 0,0.60938 0.15625,1.03125 0.375,1.03125 3.35937,0 6.28125,-4.499996 6.28125,-10.812496 l 0,-21.625 c 0,-5.015625 1.75,-9.78125 4.15625,-9.78125 0.21875,0 0.375,-0.421875 0.375,-1.03125 z"
       id="path4899"
       style="fill:#000000;fill-opacity:1;fill-rule:nonzero;stroke:none" />
    <path
       d="m 73.589844,122.60547 c 0.6875,0 1.15625,-0.15625 1.15625,-0.375 0,-2.40625 5.328125,-4.15625 10.921875,-4.15625 l 24.171871,0 c 7.04688,0 12.07813,-2.92188 12.07813,-6.28125 0,-0.21875 -0.48438,-0.375 -1.15625,-0.375 -0.6875,0 -1.17188,0.15625 -1.17188,0.375 0,2.40625 -4.73437,4.15625 -9.75,4.15625 l -24.171871,0 c -5.59375,0 -10.046875,1.54687 -12.078125,3.6875 -2.03125,-2.14063 -6.46875,-3.6875 -12.078125,-3.6875 l -24.15625,0 c -5.03125,0 -9.765625,-1.75 -9.765625,-4.15625 0,-0.21875 -0.484375,-0.375 -1.15625,-0.375 -0.671875,0 -1.15625,0.15625 -1.15625,0.375 0,3.35937 5.015625,6.28125 12.078125,6.28125 l 24.15625,0 c 5.609375,0 10.921875,1.75 10.921875,4.15625 0,0.21875 0.484375,0.375 1.15625,0.375 z"
       id="path4901"
       style="fill:#000000;fill-opacity:1;fill-rule:nonzero;stroke:none" />
    <path
       d="m 44.5,68.671875 33.726562,5.058594"
       id="path4903"
       style="fill:none;stroke:#000000;stroke-width:1;stroke-linecap:butt;stroke-linejoin:miter;stroke-miterlimit:4;stroke-opacity:1" />
    <path
       d="M 70.296875,68.949219 79.28125,73.875 69.246094,75.945312 c 1.828125,-1.839843 2.246094,-4.664062 1.050781,-6.996093 z"
       id="path4905"
       style="fill:#000000;fill-opacity:1;fill-rule:evenodd;stroke:none" />
    <path
       d="m 33.546875,130.90234 1.09375,0 0,7.10938 3.890625,0 0,0.90625 -4.984375,0 z m 11.148437,4.76563 0,0.48437 -4.546874,0 c 0.03906,0.67969 0.242187,1.19532 0.609374,1.54688 0.363282,0.35547 0.875,0.53125 1.53125,0.53125 0.382813,0 0.753907,-0.0469 1.109376,-0.14063 0.351562,-0.0937 0.707031,-0.22656 1.0625,-0.40625 l 0,0.92188 c -0.355469,0.15625 -0.71875,0.27344 -1.09375,0.34375 -0.375,0.082 -0.75,0.125 -1.125,0.125 -0.96875,0 -1.734376,-0.27344 -2.296876,-0.82813 -0.554687,-0.5625 -0.828124,-1.32031 -0.828124,-2.28125 0,-0.97656 0.265624,-1.7539 0.796874,-2.32812 0.53125,-0.58203 1.25,-0.875 2.15625,-0.875 0.800782,0 1.4375,0.26172 1.90625,0.78125 0.476563,0.52344 0.71875,1.23047 0.71875,2.125 z m -1,-0.29688 c 0,-0.53906 -0.152343,-0.97265 -0.453124,-1.29687 -0.292969,-0.32031 -0.683594,-0.48438 -1.171876,-0.48438 -0.554687,0 -0.996093,0.15625 -1.328124,0.46875 -0.324219,0.3125 -0.511719,0.75 -0.5625,1.3125 z m 6.578126,-2.29687 0,0.9375 c -0.28125,-0.14453 -0.574219,-0.25 -0.875,-0.3125 -0.304688,-0.0703 -0.617188,-0.10938 -0.9375,-0.10938 -0.492188,0 -0.859376,0.0781 -1.109376,0.23438 -0.242187,0.14844 -0.359374,0.36719 -0.359374,0.65625 0,0.23047 0.08594,0.41406 0.265624,0.54687 0.175782,0.125 0.53125,0.25 1.0625,0.375 l 0.328126,0.0781 c 0.707031,0.14844 1.207031,0.35937 1.5,0.64062 0.289062,0.27344 0.4375,0.65235 0.4375,1.14063 0,0.55469 -0.21875,0.99609 -0.65625,1.32812 -0.4375,0.32422 -1.046876,0.48438 -1.828126,0.48438 -0.324218,0 -0.664062,-0.0312 -1.015624,-0.0937 -0.34375,-0.0625 -0.710938,-0.15625 -1.09375,-0.28125 l 0,-1.01563 c 0.363281,0.1875 0.722656,0.32813 1.078124,0.42188 0.351563,0.0937 0.707032,0.14062 1.0625,0.14062 0.457032,0 0.8125,-0.0781 1.0625,-0.23437 0.25,-0.16406 0.375,-0.39063 0.375,-0.67188 0,-0.26953 -0.08984,-0.47656 -0.265624,-0.625 -0.179688,-0.14453 -0.574219,-0.28125 -1.1875,-0.40625 l -0.34375,-0.0937 c -0.617188,-0.125 -1.058594,-0.3164 -1.328126,-0.57812 -0.273437,-0.26953 -0.40625,-0.64063 -0.40625,-1.10938 0,-0.5625 0.195313,-0.99218 0.59375,-1.29687 0.40625,-0.3125 0.976563,-0.46875 1.71875,-0.46875 0.363282,0 0.707032,0.0273 1.03125,0.0781 0.320313,0.0547 0.617188,0.13282 0.890626,0.23438 z m 5.839843,0 0,0.9375 c -0.28125,-0.14453 -0.574219,-0.25 -0.875,-0.3125 -0.304687,-0.0703 -0.617187,-0.10938 -0.9375,-0.10938 -0.492187,0 -0.859375,0.0781 -1.109375,0.23438 -0.242187,0.14844 -0.359375,0.36719 -0.359375,0.65625 0,0.23047 0.08594,0.41406 0.265625,0.54687 0.175782,0.125 0.53125,0.25 1.0625,0.375 l 0.328125,0.0781 c 0.707031,0.14844 1.207031,0.35937 1.5,0.64062 0.289063,0.27344 0.4375,0.65235 0.4375,1.14063 0,0.55469 -0.21875,0.99609 -0.65625,1.32812 -0.4375,0.32422 -1.046875,0.48438 -1.828125,0.48438 -0.324218,0 -0.664062,-0.0312 -1.015625,-0.0937 -0.34375,-0.0625 -0.710937,-0.15625 -1.09375,-0.28125 l 0,-1.01563 c 0.363281,0.1875 0.722657,0.32813 1.078125,0.42188 0.351563,0.0937 0.707032,0.14062 1.0625,0.14062 0.457032,0 0.8125,-0.0781 1.0625,-0.23437 0.25,-0.16406 0.375,-0.39063 0.375,-0.67188 0,-0.26953 -0.08984,-0.47656 -0.265625,-0.625 -0.179687,-0.14453 -0.574219,-0.28125 -1.1875,-0.40625 l -0.34375,-0.0937 c -0.617187,-0.125 -1.058593,-0.3164 -1.328125,-0.57812 -0.273437,-0.26953 -0.40625,-0.64063 -0.40625,-1.10938 0,-0.5625 0.195313,-0.99218 0.59375,-1.29687 0.40625,-0.3125 0.976563,-0.46875 1.71875,-0.46875 0.363282,0 0.707032,0.0273 1.03125,0.0781 0.320313,0.0547 0.617188,0.13282 0.890625,0.23438 z m 9.53125,0.73437 0,-3.25 0.984375,0 0,8.35938 -0.984375,0 0,-0.90625 c -0.210937,0.36719 -0.476562,0.63672 -0.796875,0.8125 -0.3125,0.16406 -0.695312,0.25 -1.140625,0.25 -0.71875,0 -1.308593,-0.28516 -1.765625,-0.85938 -0.460937,-0.58203 -0.6875,-1.34765 -0.6875,-2.29687 0,-0.94531 0.226563,-1.70703 0.6875,-2.28125 0.457032,-0.58203 1.046875,-0.875 1.765625,-0.875 0.445313,0 0.828125,0.0898 1.140625,0.26562 0.320313,0.16797 0.585938,0.42969 0.796875,0.78125 z m -3.375,2.10938 c 0,0.73047 0.148438,1.30469 0.453125,1.71875 0.300782,0.40625 0.710938,0.60937 1.234375,0.60937 0.519531,0 0.929688,-0.20312 1.234375,-0.60937 0.300782,-0.41406 0.453125,-0.98828 0.453125,-1.71875 0,-0.72656 -0.152343,-1.29688 -0.453125,-1.70313 -0.304687,-0.41406 -0.714844,-0.625 -1.234375,-0.625 -0.523437,0 -0.933593,0.21094 -1.234375,0.625 -0.304687,0.40625 -0.453125,0.97657 -0.453125,1.70313 z m 11.671875,-0.25 0,0.48437 -4.546875,0 c 0.03906,0.67969 0.242188,1.19532 0.609375,1.54688 0.363282,0.35547 0.875,0.53125 1.53125,0.53125 0.382813,0 0.753906,-0.0469 1.109375,-0.14063 0.351563,-0.0937 0.707031,-0.22656 1.0625,-0.40625 l 0,0.92188 c -0.355469,0.15625 -0.71875,0.27344 -1.09375,0.34375 -0.375,0.082 -0.75,0.125 -1.125,0.125 -0.96875,0 -1.734375,-0.27344 -2.296875,-0.82813 -0.554687,-0.5625 -0.828125,-1.32031 -0.828125,-2.28125 0,-0.97656 0.265625,-1.7539 0.796875,-2.32812 0.53125,-0.58203 1.25,-0.875 2.15625,-0.875 0.800782,0 1.4375,0.26172 1.90625,0.78125 0.476563,0.52344 0.71875,1.23047 0.71875,2.125 z m -1,-0.29688 c 0,-0.53906 -0.152344,-0.97265 -0.453125,-1.29687 -0.292969,-0.32031 -0.683593,-0.48438 -1.171875,-0.48438 -0.554687,0 -0.996094,0.15625 -1.328125,0.46875 -0.324219,0.3125 -0.511719,0.75 -0.5625,1.3125 z m 2.734375,-4.8125 1,0 0,8.35938 -1,0 z m 5.839844,5.32813 c -0.792969,0 -1.34375,0.0937 -1.65625,0.28125 -0.304687,0.1875 -0.453125,0.5 -0.453125,0.9375 0,0.34375 0.113281,0.62109 0.34375,0.82812 0.226562,0.21094 0.539062,0.3125 0.9375,0.3125 0.550781,0 0.988281,-0.1914 1.3125,-0.57812 0.332031,-0.39453 0.5,-0.91016 0.5,-1.54688 l 0,-0.23437 z m 1.96875,-0.40625 0,3.4375 -0.984375,0 0,-0.90625 c -0.21875,0.36719 -0.5,0.63672 -0.84375,0.8125 -0.335938,0.16406 -0.746094,0.25 -1.234375,0.25 -0.617187,0 -1.105469,-0.17188 -1.46875,-0.51563 -0.367187,-0.34375 -0.546875,-0.80468 -0.546875,-1.39062 0,-0.67578 0.222656,-1.1875 0.671875,-1.53125 0.457031,-0.34375 1.140625,-0.51563 2.046875,-0.51563 l 1.375,0 0,-0.0937 c 0,-0.45703 -0.152344,-0.8125 -0.453125,-1.0625 -0.292969,-0.25 -0.710937,-0.375 -1.25,-0.375 -0.34375,0 -0.683594,0.043 -1.015625,0.125 -0.324219,0.0859 -0.636719,0.21094 -0.9375,0.375 l 0,-0.90625 c 0.363281,-0.14453 0.71875,-0.25 1.0625,-0.3125 0.34375,-0.0703 0.671875,-0.10937 0.984375,-0.10937 0.875,0 1.523437,0.22656 1.953125,0.67187 0.425781,0.44922 0.640625,1.13282 0.640625,2.04688 z m 4.683594,4 c -0.28125,0.71875 -0.558594,1.17969 -0.828125,1.39062 -0.261719,0.21875 -0.617188,0.32813 -1.0625,0.32813 l -0.78125,0 0,-0.8125 0.578125,0 c 0.269531,0 0.476562,-0.0703 0.625,-0.20313 0.15625,-0.125 0.320312,-0.42968 0.5,-0.90625 l 0.1875,-0.45312 -2.4375,-5.92188 1.046875,0 1.875,4.70313 1.890625,-4.70313 1.046875,0 z m 3.414062,-4.01563 2.90625,0 0,0.875 -2.90625,0 z m 7.59375,-4.90625 0,0.82813 -0.9375,0 c -0.355469,0 -0.605469,0.0742 -0.75,0.21875 -0.136719,0.13672 -0.203125,0.39062 -0.203125,0.76562 l 0,0.53125 1.625,0 0,0.76563 -1.625,0 0,5.25 -0.984375,0 0,-5.25 -0.953125,0 0,-0.76563 0.953125,0 0,-0.42187 c 0,-0.66406 0.148438,-1.14844 0.453125,-1.45313 0.3125,-0.3125 0.804688,-0.46875 1.484375,-0.46875 z m 3.624999,5.32813 c -0.79297,0 -1.34375,0.0937 -1.65625,0.28125 -0.30469,0.1875 -0.45312,0.5 -0.45312,0.9375 0,0.34375 0.11328,0.62109 0.34375,0.82812 0.22656,0.21094 0.53906,0.3125 0.9375,0.3125 0.55078,0 0.98828,-0.1914 1.3125,-0.57812 0.33203,-0.39453 0.5,-0.91016 0.5,-1.54688 l 0,-0.23437 z m 1.96875,-0.40625 0,3.4375 -0.98437,0 0,-0.90625 c -0.21875,0.36719 -0.5,0.63672 -0.84375,0.8125 -0.33594,0.16406 -0.7461,0.25 -1.23438,0.25 -0.61719,0 -1.10547,-0.17188 -1.46875,-0.51563 -0.367186,-0.34375 -0.546874,-0.80468 -0.546874,-1.39062 0,-0.67578 0.222656,-1.1875 0.671874,-1.53125 0.45703,-0.34375 1.14063,-0.51563 2.04688,-0.51563 l 1.375,0 0,-0.0937 c 0,-0.45703 -0.15235,-0.8125 -0.45313,-1.0625 -0.29297,-0.25 -0.71094,-0.375 -1.25,-0.375 -0.34375,0 -0.68359,0.043 -1.01562,0.125 -0.32422,0.0859 -0.63672,0.21094 -0.9375,0.375 l 0,-0.90625 c 0.36328,-0.14453 0.71875,-0.25 1.0625,-0.3125 0.34375,-0.0703 0.67187,-0.10937 0.98437,-0.10937 0.875,0 1.52344,0.22656 1.95313,0.67187 0.42578,0.44922 0.64062,1.13282 0.64062,2.04688 z m 2.16797,-2.57813 1,0 0,6.01563 -1,0 z m 0,-2.34375 1,0 0,1.25 -1,0 z m 6.58984,3.26563 c -0.10546,-0.0625 -0.22656,-0.10938 -0.35937,-0.14063 -0.125,-0.0312 -0.26563,-0.0469 -0.42188,-0.0469 -0.5625,0 -0.99609,0.18359 -1.29687,0.54687 -0.29297,0.36719 -0.4375,0.88672 -0.4375,1.5625 l 0,3.17188 -1,0 0,-6.01563 1,0 0,0.9375 c 0.19531,-0.36328 0.46094,-0.63281 0.79687,-0.8125 0.33204,-0.17578 0.73829,-0.26562 1.21875,-0.26562 0.0703,0 0.14454,0.008 0.21875,0.0156 0.082,0 0.17579,0.0117 0.28125,0.0312 z"
       id="path4907"
       style="fill:#000000;fill-opacity:1;fill-rule:nonzero;stroke:none" />
    <path
       d="m 165.04687,2.378906 0,1.09375 -7.10937,0 0,3.890625 -0.90625,0 0,-4.984375 z m -4.76562,11.148438 -0.48438,0 0,-4.546875 c -0.67968,0.039062 -1.19531,0.242187 -1.54687,0.609375 -0.35547,0.363281 -0.53125,0.875 -0.53125,1.53125 0,0.382812 0.0469,0.753906 0.14062,1.109375 0.0937,0.351562 0.22657,0.707031 0.40625,1.0625 l -0.92187,0 C 157.1875,12.9375 157.07031,12.574219 157,12.199219 c -0.082,-0.375 -0.125,-0.75 -0.125,-1.125 0,-0.96875 0.27344,-1.734375 0.82812,-2.296875 0.5625,-0.554688 1.32032,-0.828125 2.28125,-0.828125 0.97657,0 1.75391,0.265625 2.32813,0.796875 0.58203,0.53125 0.875,1.25 0.875,2.15625 0,0.800781 -0.26172,1.4375 -0.78125,1.90625 -0.52344,0.476562 -1.23047,0.71875 -2.125,0.71875 z m 0.29687,-1 c 0.53907,0 0.97266,-0.152344 1.29688,-0.453125 0.32031,-0.292969 0.48437,-0.683594 0.48437,-1.171875 0,-0.554688 -0.15625,-0.996094 -0.46875,-1.328125 -0.3125,-0.324219 -0.75,-0.511719 -1.3125,-0.5625 z m 2.29688,6.578125 -0.9375,0 c 0.14453,-0.28125 0.25,-0.574219 0.3125,-0.875 0.0703,-0.304688 0.10937,-0.617188 0.10937,-0.9375 0,-0.492188 -0.0781,-0.859375 -0.23437,-1.109375 -0.14844,-0.242188 -0.36719,-0.359375 -0.65625,-0.359375 -0.23047,0 -0.41406,0.08594 -0.54688,0.265625 -0.125,0.175781 -0.25,0.53125 -0.375,1.0625 l -0.0781,0.328125 c -0.14844,0.707031 -0.35938,1.207031 -0.64063,1.5 -0.27343,0.289062 -0.65234,0.4375 -1.14062,0.4375 -0.55469,0 -0.99609,-0.21875 -1.32813,-0.65625 -0.32421,-0.4375 -0.48437,-1.046875 -0.48437,-1.828125 0,-0.324219 0.0312,-0.664063 0.0937,-1.015625 0.0625,-0.34375 0.15625,-0.710938 0.28125,-1.09375 l 1.01562,0 c -0.1875,0.363281 -0.32812,0.722656 -0.42187,1.078125 -0.0937,0.351562 -0.14063,0.707031 -0.14063,1.0625 0,0.457031 0.0781,0.8125 0.23438,1.0625 0.16406,0.25 0.39062,0.375 0.67187,0.375 0.26954,0 0.47657,-0.08984 0.625,-0.265625 0.14454,-0.179688 0.28125,-0.574219 0.40625,-1.1875 l 0.0937,-0.34375 c 0.125,-0.617188 0.31641,-1.058594 0.57813,-1.328125 0.26953,-0.273438 0.64062,-0.40625 1.10937,-0.40625 0.5625,0 0.99219,0.195312 1.29688,0.59375 0.3125,0.40625 0.46875,0.976562 0.46875,1.71875 0,0.363281 -0.0273,0.707031 -0.0781,1.03125 -0.0547,0.320312 -0.13281,0.617187 -0.23437,0.890625 z m 0,5.839843 -0.9375,0 c 0.14453,-0.28125 0.25,-0.574218 0.3125,-0.875 0.0703,-0.304687 0.10937,-0.617187 0.10937,-0.9375 0,-0.492187 -0.0781,-0.859374 -0.23437,-1.109374 -0.14844,-0.242188 -0.36719,-0.359376 -0.65625,-0.359376 -0.23047,0 -0.41406,0.08594 -0.54688,0.265626 -0.125,0.175781 -0.25,0.53125 -0.375,1.0625 l -0.0781,0.328124 c -0.14844,0.707032 -0.35938,1.207032 -0.64063,1.5 -0.27343,0.289063 -0.65234,0.4375 -1.14062,0.4375 -0.55469,0 -0.99609,-0.21875 -1.32813,-0.65625 -0.32421,-0.4375 -0.48437,-1.046874 -0.48437,-1.828124 0,-0.324219 0.0312,-0.664063 0.0937,-1.015626 0.0625,-0.34375 0.15625,-0.710937 0.28125,-1.09375 l 1.01562,0 c -0.1875,0.363282 -0.32812,0.722657 -0.42187,1.078126 -0.0937,0.351562 -0.14063,0.707031 -0.14063,1.0625 0,0.457031 0.0781,0.8125 0.23438,1.0625 0.16406,0.25 0.39062,0.375 0.67187,0.375 0.26954,0 0.47657,-0.08984 0.625,-0.265626 0.14454,-0.179687 0.28125,-0.574218 0.40625,-1.1875 l 0.0937,-0.34375 c 0.125,-0.617187 0.31641,-1.058593 0.57813,-1.328124 0.26953,-0.273438 0.64062,-0.40625 1.10937,-0.40625 0.5625,0 0.99219,0.195312 1.29688,0.59375 0.3125,0.40625 0.46875,0.976562 0.46875,1.71875 0,0.363281 -0.0273,0.707031 -0.0781,1.03125 -0.0547,0.320312 -0.13281,0.617187 -0.23437,0.890624 z m 1.875,6.546876 -1.70313,0 0,2.03125 -0.76562,0 0,-2.03125 -3.26563,0 c -0.49218,0 -0.80859,0.06641 -0.95312,0.203124 -0.13672,0.132813 -0.20313,0.40625 -0.20313,0.8125 l 0,1.015626 -0.82812,0 0,-1.015626 c 0,-0.761718 0.14062,-1.289062 0.42187,-1.578124 0.28907,-0.292969 0.8125,-0.4375 1.5625,-0.4375 l 3.26563,0 0,-0.71875 0.76562,0 0,0.71875 1.70313,0 z m -4.09375,8.410156 -3.625,0 0,-0.984375 3.59375,0 c 0.57031,0 1,-0.109375 1.28125,-0.328125 0.28125,-0.21875 0.42187,-0.554688 0.42187,-1 0,-0.53125 -0.17187,-0.953125 -0.51562,-1.265625 -0.33594,-0.304688 -0.79297,-0.453125 -1.375,-0.453125 l -3.40625,0 0,-1 8.35937,0 0,1 -3.28125,0 c 0.36329,0.226562 0.63282,0.503906 0.8125,0.828125 0.17579,0.320312 0.26563,0.691406 0.26563,1.109375 0,0.6875 -0.21484,1.207031 -0.64063,1.5625 -0.42968,0.351562 -1.05859,0.53125 -1.89062,0.53125 z m 1.46875,5.59375 c 0.0625,-0.105469 0.10937,-0.226563 0.14062,-0.359375 0.0312,-0.125 0.0469,-0.265625 0.0469,-0.421875 0,-0.5625 -0.18359,-0.996094 -0.54688,-1.296875 -0.36718,-0.292969 -0.88671,-0.4375 -1.5625,-0.4375 l -3.17187,0 0,-1 6.01562,0 0,1 -0.9375,0 c 0.36329,0.195312 0.63282,0.460937 0.8125,0.796875 0.17579,0.332031 0.26563,0.738281 0.26563,1.21875 0,0.07031 -0.008,0.144531 -0.0156,0.21875 0,0.08203 -0.0117,0.175781 -0.0312,0.28125 z m 0.23437,3.230468 c 0,-0.53125 -0.21093,-0.953124 -0.625,-1.265624 -0.41796,-0.304688 -0.98437,-0.453126 -1.70312,-0.453126 -0.71875,0 -1.28906,0.148438 -1.70313,0.453126 -0.40625,0.300781 -0.60937,0.722656 -0.60937,1.265624 0,0.519532 0.20312,0.929688 0.60937,1.234376 0.41407,0.3125 0.98438,0.46875 1.70313,0.46875 0.71875,0 1.28516,-0.15625 1.70312,-0.46875 0.41407,-0.304688 0.625,-0.714844 0.625,-1.234376 z m 0.82813,0 c 0,0.851563 -0.28125,1.523438 -0.84375,2.015626 -0.55469,0.488281 -1.32422,0.734374 -2.3125,0.734374 -0.98047,0 -1.75,-0.246093 -2.3125,-0.734374 -0.5625,-0.492188 -0.84375,-1.164063 -0.84375,-2.015626 0,-0.867187 0.28125,-1.542968 0.84375,-2.03125 0.5625,-0.492187 1.33203,-0.734374 2.3125,-0.734374 0.98828,0 1.75781,0.242187 2.3125,0.734374 0.5625,0.488282 0.84375,1.164063 0.84375,2.03125 z m -3.78125,4.410157 3.64062,0 0,0.984375 -3.60937,0 c -0.5625,0 -0.99219,0.109375 -1.28125,0.328125 -0.28125,0.226562 -0.42188,0.5625 -0.42188,1 0,0.539062 0.16407,0.960937 0.5,1.265625 0.34375,0.3125 0.8125,0.46875 1.40625,0.46875 l 3.40625,0 0,0.984375 -6.01562,0 0,-0.984375 0.92187,0 c -0.36718,-0.242188 -0.63671,-0.523438 -0.8125,-0.84375 -0.17578,-0.3125 -0.26562,-0.679688 -0.26562,-1.09375 0,-0.6875 0.21094,-1.214844 0.64062,-1.578125 0.4375,-0.355469 1.06641,-0.53125 1.89063,-0.53125 z m 3.78125,2.484375 z m -3.07813,8.6875 c 0.71875,0 1.26954,-0.152344 1.65625,-0.453125 0.39454,-0.292969 0.59375,-0.703125 0.59375,-1.234375 0,-0.53125 -0.19921,-0.949219 -0.59375,-1.25 -0.38671,-0.292969 -0.9375,-0.4375 -1.65625,-0.4375 -0.71093,0 -1.26171,0.144531 -1.65625,0.4375 -0.39843,0.300781 -0.59375,0.71875 -0.59375,1.25 0,0.53125 0.19532,0.941406 0.59375,1.234375 0.39454,0.300781 0.94532,0.453125 1.65625,0.453125 z m -2.32812,0.984375 c -1.03125,0 -1.78906,-0.230469 -2.28125,-0.6875 -0.5,-0.449219 -0.75,-1.140625 -0.75,-2.078125 0,-0.355469 0.0273,-0.6875 0.0781,-1 0.0547,-0.304688 0.13282,-0.601563 0.23438,-0.890625 l 0.95312,0 c -0.15625,0.289062 -0.26953,0.578125 -0.34375,0.859375 -0.0703,0.28125 -0.10937,0.570312 -0.10937,0.875 0,0.644531 0.17187,1.128906 0.51562,1.453125 0.33594,0.320312 0.83985,0.484375 1.51563,0.484375 l 0.5,0 c -0.35547,-0.210938 -0.62109,-0.476563 -0.79688,-0.796875 -0.17968,-0.3125 -0.26562,-0.695313 -0.26562,-1.140625 0,-0.742188 0.28125,-1.335938 0.84375,-1.78125 0.5625,-0.449219 1.30469,-0.671875 2.23437,-0.671875 0.92579,0 1.67188,0.222656 2.23438,0.671875 0.5625,0.445312 0.84375,1.039062 0.84375,1.78125 0,0.445312 -0.0898,0.828125 -0.26563,1.140625 -0.16796,0.320312 -0.42968,0.585937 -0.78125,0.796875 l 0.90625,0 0,0.984375 z m 2.875,7.15625 -3.625,0 0,-0.984375 3.59375,0 c 0.57031,0 1,-0.109375 1.28125,-0.328125 0.28125,-0.21875 0.42187,-0.554688 0.42187,-1 0,-0.53125 -0.17187,-0.953125 -0.51562,-1.265625 -0.33594,-0.304688 -0.79297,-0.453125 -1.375,-0.453125 l -3.40625,0 0,-1 8.35937,0 0,1 -3.28125,0 c 0.36329,0.226562 0.63282,0.503906 0.8125,0.828125 0.17579,0.320312 0.26563,0.691406 0.26563,1.109375 0,0.6875 -0.21484,1.207031 -0.64063,1.5625 -0.42968,0.351562 -1.05859,0.53125 -1.89062,0.53125 z m -2.71875,3.078125 -3.1875,0 0,-1 8.29687,0 0,1 -0.90625,0 c 0.35157,0.195312 0.61329,0.453125 0.78125,0.765625 0.17579,0.320312 0.26563,0.707031 0.26563,1.15625 0,0.726562 -0.29297,1.316406 -0.875,1.765625 -0.57422,0.457031 -1.33594,0.6875 -2.28125,0.6875 -0.94922,0 -1.71484,-0.230469 -2.29688,-0.6875 -0.57421,-0.449219 -0.85937,-1.039063 -0.85937,-1.765625 0,-0.449219 0.0859,-0.835938 0.25,-1.15625 0.17578,-0.3125 0.44531,-0.570313 0.8125,-0.765625 z m 2.09375,3.359375 c 0.72656,0 1.29687,-0.152344 1.70312,-0.453125 0.41407,-0.304688 0.625,-0.714844 0.625,-1.234375 0,-0.523438 -0.21093,-0.933594 -0.625,-1.234375 -0.40625,-0.292969 -0.97656,-0.4375 -1.70312,-0.4375 -0.73047,0 -1.30469,0.144531 -1.71875,0.4375 -0.40625,0.300781 -0.60938,0.710937 -0.60938,1.234375 0,0.519531 0.20313,0.929687 0.60938,1.234375 0.41406,0.300781 0.98828,0.453125 1.71875,0.453125 z m -0.625,2.6875 3.64062,0 0,0.984375 -3.60937,0 c -0.5625,0 -0.99219,0.109375 -1.28125,0.328125 -0.28125,0.226562 -0.42188,0.5625 -0.42188,1 0,0.539062 0.16407,0.960937 0.5,1.265625 0.34375,0.3125 0.8125,0.46875 1.40625,0.46875 l 3.40625,0 0,0.984375 -6.01562,0 0,-0.984375 0.92187,0 c -0.36718,-0.242188 -0.63671,-0.523438 -0.8125,-0.84375 -0.17578,-0.3125 -0.26562,-0.679688 -0.26562,-1.09375 0,-0.6875 0.21094,-1.214844 0.64062,-1.578125 0.4375,-0.355469 1.06641,-0.53125 1.89063,-0.53125 z m 3.78125,2.484375 z m 1.5625,5.703125 -1.70313,0 0,2.03125 -0.76562,0 0,-2.03125 -3.26563,0 c -0.49218,0 -0.80859,0.06641 -0.95312,0.203125 -0.13672,0.132812 -0.20313,0.40625 -0.20313,0.8125 l 0,1.015625 -0.82812,0 0,-1.015625 c 0,-0.761719 0.14062,-1.289063 0.42187,-1.578125 0.28907,-0.292969 0.8125,-0.4375 1.5625,-0.4375 l 3.26563,0 0,-0.71875 0.76562,0 0,0.71875 1.70313,0 z m -4.26563,2.910156 0,2.90625 -0.875,0 0,-2.90625 z m 4.90625,7.593755 -0.82812,0 0,-0.937505 c 0,-0.355469 -0.0742,-0.605469 -0.21875,-0.75 C 164.20703,98.441406 163.95312,98.375 163.57812,98.375 l -0.53125,0 0,1.625 -0.76562,0 0,-1.625 -5.25,0 0,-0.984375 5.25,0 0,-0.953125 0.76562,0 0,0.953125 0.42188,0 c 0.66406,0 1.14844,0.148437 1.45312,0.453125 0.3125,0.3125 0.46875,0.804688 0.46875,1.484375 z m -5.32812,3.625 c 0,-0.79297 -0.0937,-1.34375 -0.28125,-1.65625 -0.1875,-0.30469 -0.5,-0.45313 -0.9375,-0.45313 -0.34375,0 -0.62109,0.11328 -0.82813,0.34375 -0.21093,0.22656 -0.3125,0.53906 -0.3125,0.9375 0,0.55078 0.19141,0.98828 0.57813,1.3125 0.39453,0.33203 0.91016,0.5 1.54687,0.5 l 0.23438,0 z m 0.40625,1.96875 -3.4375,0 0,-0.98438 0.90625,0 c -0.36719,-0.21875 -0.63672,-0.5 -0.8125,-0.84375 -0.16406,-0.33594 -0.25,-0.74609 -0.25,-1.23437 0,-0.61719 0.17187,-1.10547 0.51562,-1.46875 0.34375,-0.36719 0.80469,-0.54688 1.39063,-0.54688 0.67578,0 1.1875,0.22266 1.53125,0.67188 0.34375,0.45703 0.51562,1.14062 0.51562,2.04687 l 0,1.375 0.0937,0 c 0.45704,0 0.8125,-0.15234 1.0625,-0.45312 0.25,-0.29297 0.375,-0.71094 0.375,-1.25 0,-0.34375 -0.043,-0.6836 -0.125,-1.01563 -0.0859,-0.32422 -0.21093,-0.63672 -0.375,-0.9375 l 0.90625,0 c 0.14454,0.36328 0.25,0.71875 0.3125,1.0625 0.0703,0.34375 0.10938,0.67188 0.10938,0.98438 0,0.875 -0.22656,1.52343 -0.67188,1.95312 -0.44921,0.42578 -1.13281,0.64063 -2.04687,0.64063 z m 2.57812,2.16796 0,1 -6.01562,0 0,-1 z m 2.34375,0 0,1 -1.25,0 0,-1 z m -3.26562,6.58985 c 0.0625,-0.10547 0.10937,-0.22656 0.14062,-0.35938 0.0312,-0.125 0.0469,-0.26562 0.0469,-0.42187 0,-0.5625 -0.18359,-0.9961 -0.54688,-1.29688 -0.36718,-0.29297 -0.88671,-0.4375 -1.5625,-0.4375 l -3.17187,0 0,-1 6.01562,0 0,1 -0.9375,0 c 0.36329,0.19532 0.63282,0.46094 0.8125,0.79688 0.17579,0.33203 0.26563,0.73828 0.26563,1.21875 0,0.0703 -0.008,0.14453 -0.0156,0.21875 0,0.082 -0.0117,0.17578 -0.0312,0.28125 z"
       id="path4909"
       style="fill:#000000;fill-opacity:1;fill-rule:nonzero;stroke:none" />
    <path
       d="m 212.25,6.679688 1.625,0 2.04687,5.453124 2.04688,-5.453124 1.625,0 0,8.015624 -1.0625,0 0,-7.046874 -2.0625,5.5 -1.09375,0 -2.07813,-5.5 0,7.046874 -1.04687,0 z m 14.77734,4.765624 0,0.484376 -4.54687,0 c 0.0391,0.679687 0.24219,1.195312 0.60937,1.546874 0.36328,0.355469 0.875,0.53125 1.53125,0.53125 0.38282,0 0.75391,-0.04687 1.10938,-0.140624 0.35156,-0.09375 0.70703,-0.226563 1.0625,-0.40625 l 0,0.921874 c -0.35547,0.15625 -0.71875,0.273438 -1.09375,0.34375 -0.375,0.08203 -0.75,0.125 -1.125,0.125 -0.96875,0 -1.73438,-0.273437 -2.29688,-0.828124 -0.55468,-0.5625 -0.82812,-1.320313 -0.82812,-2.28125 0,-0.976563 0.26562,-1.753907 0.79687,-2.328126 0.53125,-0.582031 1.25,-0.875 2.15625,-0.875 0.80078,0 1.4375,0.261719 1.90625,0.78125 0.47657,0.523438 0.71875,1.230469 0.71875,2.125 z m -1,-0.296874 c 0,-0.539063 -0.15234,-0.972657 -0.45312,-1.296876 -0.29297,-0.320312 -0.6836,-0.484374 -1.17188,-0.484374 -0.55468,0 -0.99609,0.15625 -1.32812,0.46875 -0.32422,0.3125 -0.51172,0.75 -0.5625,1.3125 z m 6.70313,-1.5625 0,-3.25 0.98437,0 0,8.359374 -0.98437,0 0,-0.90625 c -0.21094,0.367188 -0.47656,0.636719 -0.79688,0.8125 -0.3125,0.164063 -0.69531,0.25 -1.14062,0.25 -0.71875,0 -1.3086,-0.285156 -1.76563,-0.859374 -0.46093,-0.582032 -0.6875,-1.347657 -0.6875,-2.296876 0,-0.945312 0.22657,-1.707031 0.6875,-2.28125 0.45703,-0.582031 1.04688,-0.875 1.76563,-0.875 0.44531,0 0.82812,0.089844 1.14062,0.265626 0.32032,0.167968 0.58594,0.429687 0.79688,0.78125 z m -3.375,2.109374 c 0,0.730469 0.14844,1.304688 0.45312,1.71875 0.30078,0.40625 0.71094,0.609376 1.23438,0.609376 0.51953,0 0.92969,-0.203126 1.23437,-0.609376 0.30078,-0.414062 0.45313,-0.988281 0.45313,-1.71875 0,-0.726562 -0.15235,-1.296874 -0.45313,-1.703124 -0.30468,-0.414063 -0.71484,-0.625 -1.23437,-0.625 -0.52344,0 -0.9336,0.210937 -1.23438,0.625 -0.30468,0.40625 -0.45312,0.976562 -0.45312,1.703124 z m 6.51562,-3.015624 1,0 0,6.015624 -1,0 z m 0,-2.34375 1,0 0,1.25 -1,0 z m 5.83985,5.328124 c -0.79297,0 -1.34375,0.09375 -1.65625,0.28125 -0.30469,0.1875 -0.45313,0.5 -0.45313,0.9375 0,0.34375 0.11328,0.621094 0.34375,0.828126 0.22656,0.210937 0.53906,0.3125 0.9375,0.3125 0.55078,0 0.98828,-0.191407 1.3125,-0.578126 0.33203,-0.394531 0.5,-0.910156 0.5,-1.546874 l 0,-0.234376 z m 1.96875,-0.40625 0,3.4375 -0.98438,0 0,-0.90625 c -0.21875,0.367188 -0.5,0.636719 -0.84375,0.8125 -0.33594,0.164063 -0.74609,0.25 -1.23437,0.25 -0.61719,0 -1.10547,-0.171874 -1.46875,-0.515624 -0.36719,-0.34375 -0.54688,-0.804688 -0.54688,-1.390626 0,-0.675781 0.22266,-1.1875 0.67188,-1.53125 0.45703,-0.34375 1.14062,-0.515624 2.04687,-0.515624 l 1.375,0 0,-0.09375 c 0,-0.457032 -0.15234,-0.8125 -0.45312,-1.0625 -0.29297,-0.25 -0.71094,-0.375 -1.25,-0.375 -0.34375,0 -0.6836,0.042968 -1.01563,0.125 -0.32422,0.085937 -0.63672,0.210937 -0.9375,0.375 l 0,-0.90625 c 0.36328,-0.144532 0.71875,-0.25 1.0625,-0.3125 0.34375,-0.070313 0.67188,-0.109376 0.98438,-0.109376 0.875,0 1.52343,0.226563 1.95312,0.671876 0.42578,0.449218 0.64063,1.132812 0.64063,2.046874 z m 7.16797,-0.1875 0,3.625 -0.98438,0 0,-3.59375 c 0,-0.570312 -0.10937,-1 -0.32812,-1.28125 -0.21875,-0.28125 -0.55469,-0.421874 -1,-0.421874 -0.53125,0 -0.95313,0.171874 -1.26563,0.515624 -0.30469,0.335938 -0.45312,0.792969 -0.45312,1.375 l 0,3.40625 -1,0 0,-6.015624 1,0 0,0.9375 c 0.22656,-0.363282 0.5039,-0.632813 0.82812,-0.8125 0.32031,-0.175782 0.69141,-0.265626 1.10938,-0.265626 0.6875,0 1.20703,0.214844 1.5625,0.640626 0.35156,0.429687 0.53125,1.058593 0.53125,1.890624 z"
       id="path4911"
       style="fill:#000000;fill-opacity:1;fill-rule:nonzero;stroke:none" />
    <path
       d="m 214.54687,23.367188 c -0.53125,0 -0.95312,0.210937 -1.26562,0.625 -0.30469,0.417968 -0.45313,0.984374 -0.45313,1.703124 0,0.71875 0.14844,1.289063 0.45313,1.703126 0.30078,0.40625 0.72266,0.609374 1.26562,0.609374 0.51954,0 0.92969,-0.203124 1.23438,-0.609374 0.3125,-0.414063 0.46875,-0.984376 0.46875,-1.703126 0,-0.71875 -0.15625,-1.285156 -0.46875,-1.703124 -0.30469,-0.414063 -0.71484,-0.625 -1.23438,-0.625 z m 0,-0.828126 c 0.85157,0 1.52344,0.28125 2.01563,0.84375 0.48828,0.554688 0.73437,1.324219 0.73437,2.3125 0,0.980469 -0.24609,1.75 -0.73437,2.3125 -0.49219,0.5625 -1.16406,0.84375 -2.01563,0.84375 -0.86718,0 -1.54296,-0.28125 -2.03125,-0.84375 -0.49218,-0.5625 -0.73437,-1.332031 -0.73437,-2.3125 0,-0.988281 0.24219,-1.757812 0.73437,-2.3125 0.48829,-0.5625 1.16407,-0.84375 2.03125,-0.84375 z m 4.41016,3.78125 0,-3.640624 0.98438,0 0,3.609374 c 0,0.5625 0.10937,0.992188 0.32812,1.28125 0.22656,0.28125 0.5625,0.421876 1,0.421876 0.53906,0 0.96094,-0.164063 1.26563,-0.5 0.3125,-0.34375 0.46875,-0.8125 0.46875,-1.40625 l 0,-3.40625 0.98437,0 0,6.015624 -0.98437,0 0,-0.921874 c -0.24219,0.367187 -0.52344,0.636718 -0.84375,0.8125 -0.3125,0.175781 -0.67969,0.265624 -1.09375,0.265624 -0.6875,0 -1.21485,-0.210937 -1.57813,-0.640624 -0.35547,-0.4375 -0.53125,-1.066407 -0.53125,-1.890626 z m 2.48438,-3.78125 z m 5.70312,-1.5625 0,1.703126 2.03125,0 0,0.765624 -2.03125,0 0,3.265626 c 0,0.492187 0.0664,0.808593 0.20313,0.953124 0.13281,0.136719 0.40625,0.203126 0.8125,0.203126 l 1.01562,0 0,0.828124 -1.01562,0 c -0.76172,0 -1.28907,-0.140624 -1.57813,-0.421874 -0.29297,-0.289063 -0.4375,-0.8125 -0.4375,-1.5625 l 0,-3.265626 -0.71875,0 0,-0.765624 0.71875,0 0,-1.703126 z m 7.73828,1.9375 0,0.921876 c -0.27344,-0.15625 -0.54687,-0.269532 -0.82812,-0.34375 -0.28125,-0.08203 -0.57032,-0.125 -0.85938,-0.125 -0.63672,0 -1.13281,0.203124 -1.48437,0.609374 -0.35547,0.40625 -0.53125,0.980469 -0.53125,1.71875 0,0.730469 0.17578,1.296876 0.53125,1.703126 0.35156,0.40625 0.84765,0.609374 1.48437,0.609374 0.28906,0 0.57813,-0.03516 0.85938,-0.109374 0.28125,-0.07031 0.55468,-0.1875 0.82812,-0.34375 l 0,0.90625 c -0.27344,0.136718 -0.55859,0.234374 -0.85937,0.296874 -0.29297,0.0625 -0.60547,0.09375 -0.9375,0.09375 -0.90625,0 -1.625,-0.28125 -2.15625,-0.84375 -0.53125,-0.570312 -0.79688,-1.34375 -0.79688,-2.3125 0,-0.976562 0.26563,-1.75 0.79688,-2.3125 0.53906,-0.5625 1.28125,-0.84375 2.21875,-0.84375 0.3125,0 0.60937,0.03125 0.89062,0.09375 0.28906,0.0625 0.57031,0.15625 0.84375,0.28125 z m 4.1836,0.453126 c -0.53125,0 -0.95313,0.210937 -1.26563,0.625 -0.30469,0.417968 -0.45312,0.984374 -0.45312,1.703124 0,0.71875 0.14843,1.289063 0.45312,1.703126 0.30078,0.40625 0.72266,0.609374 1.26563,0.609374 0.51953,0 0.92968,-0.203124 1.23437,-0.609374 0.3125,-0.414063 0.46875,-0.984376 0.46875,-1.703126 0,-0.71875 -0.15625,-1.285156 -0.46875,-1.703124 -0.30469,-0.414063 -0.71484,-0.625 -1.23437,-0.625 z m 0,-0.828126 c 0.85156,0 1.52343,0.28125 2.01562,0.84375 0.48828,0.554688 0.73438,1.324219 0.73438,2.3125 0,0.980469 -0.2461,1.75 -0.73438,2.3125 -0.49219,0.5625 -1.16406,0.84375 -2.01562,0.84375 -0.86719,0 -1.54297,-0.28125 -2.03125,-0.84375 -0.49219,-0.5625 -0.73438,-1.332031 -0.73438,-2.3125 0,-0.988281 0.24219,-1.757812 0.73438,-2.3125 0.48828,-0.5625 1.16406,-0.84375 2.03125,-0.84375 z m 9.1914,1.296876 c 0.25,-0.445313 0.54688,-0.773438 0.89063,-0.984376 0.34375,-0.207031 0.75,-0.3125 1.21875,-0.3125 0.625,0 1.10156,0.21875 1.4375,0.65625 0.34375,0.4375 0.51562,1.0625 0.51562,1.875 l 0,3.625 -1,0 0,-3.59375 c 0,-0.582031 -0.10547,-1.007812 -0.3125,-1.28125 -0.19922,-0.28125 -0.50781,-0.421874 -0.92187,-0.421874 -0.51172,0 -0.91797,0.171874 -1.21875,0.515624 -0.29297,0.335938 -0.4375,0.792969 -0.4375,1.375 l 0,3.40625 -1,0 0,-3.59375 c 0,-0.582031 -0.10547,-1.007812 -0.3125,-1.28125 -0.19922,-0.28125 -0.51172,-0.421874 -0.9375,-0.421874 -0.5,0 -0.90235,0.171874 -1.20313,0.515624 -0.29297,0.335938 -0.4375,0.792969 -0.4375,1.375 l 0,3.40625 -1,0 0,-6.015624 1,0 0,0.9375 c 0.21875,-0.375 0.48438,-0.644532 0.79688,-0.8125 0.32031,-0.175782 0.69531,-0.265626 1.125,-0.265626 0.4375,0 0.80468,0.109376 1.10937,0.328126 0.3125,0.21875 0.53906,0.542968 0.6875,0.96875 z m 11.38672,1.609374 0,0.484376 -4.54687,0 c 0.0391,0.679687 0.24218,1.195312 0.60937,1.546874 0.36328,0.355469 0.875,0.53125 1.53125,0.53125 0.38281,0 0.75391,-0.04687 1.10938,-0.140624 0.35156,-0.09375 0.70703,-0.226563 1.0625,-0.40625 l 0,0.921874 c -0.35547,0.15625 -0.71875,0.273438 -1.09375,0.34375 -0.375,0.08203 -0.75,0.125 -1.125,0.125 -0.96875,0 -1.73438,-0.273437 -2.29688,-0.828124 -0.55469,-0.5625 -0.82812,-1.320313 -0.82812,-2.28125 0,-0.976563 0.26562,-1.753907 0.79687,-2.328126 0.53125,-0.582031 1.25,-0.875 2.15625,-0.875 0.80078,0 1.4375,0.261719 1.90625,0.78125 0.47656,0.523438 0.71875,1.230469 0.71875,2.125 z m -1,-0.296874 c 0,-0.539063 -0.15234,-0.972657 -0.45312,-1.296876 -0.29297,-0.320312 -0.6836,-0.484374 -1.17188,-0.484374 -0.55469,0 -0.99609,0.15625 -1.32812,0.46875 -0.32422,0.3125 -0.51172,0.75 -0.5625,1.3125 z"
       id="path4913"
       style="fill:#000000;fill-opacity:1;fill-rule:nonzero;stroke:none" />
    <path
       d="m 242.64844,32.683594 7.86718,24.730468"
       id="path4915"
       style="fill:none;stroke:#000000;stroke-width:1;stroke-linecap:butt;stroke-linejoin:miter;stroke-miterlimit:4;stroke-opacity:1" />
    <path
       d="m 251.30859,48.1875 -0.45703,10.234375 -6.28125,-8.089844 c 2.45313,0.832031 5.17188,-0.04297 6.73828,-2.144531 z"
       id="path4917"
       style="fill:#000000;fill-opacity:1;fill-rule:evenodd;stroke:none" />
    <path
       d="m 300.83594,63.894531 c 0,-0.203125 -0.15625,-0.359375 -0.375,-0.359375 -2.40625,0 -4.15625,-1.640625 -4.15625,-3.359375 l 0,-7.4375 c 0,-2.171875 -2.92188,-3.71875 -6.28125,-3.71875 -0.21875,0 -0.375,0.15625 -0.375,0.359375 0,0.203125 0.15625,0.359375 0.375,0.359375 2.40625,0 4.15625,1.453125 4.15625,3 l 0,7.4375 c 0,1.71875 1.54687,3.09375 3.6875,3.71875 -2.14063,0.625 -3.6875,2 -3.6875,3.71875 l 0,7.4375 c 0,1.546875 -1.75,3 -4.15625,3 -0.21875,0 -0.375,0.15625 -0.375,0.359375 0,0.203125 0.15625,0.359375 0.375,0.359375 3.35937,0 6.28125,-1.546875 6.28125,-3.71875 l 0,-7.4375 c 0,-1.71875 1.75,-3.359375 4.15625,-3.359375 0.21875,0 0.375,-0.15625 0.375,-0.359375 z"
       id="path4919"
       style="fill:#000000;fill-opacity:1;fill-rule:nonzero;stroke:none" />
    <path
       d="m 253.32031,98.132812 c 0.1875,0 0.32813,-0.15625 0.32813,-0.375 0,-2.40625 1.51562,-4.15625 3.10937,-4.15625 l 6.875,0 c 2,0 3.4375,-2.921874 3.4375,-6.28125 0,-0.21875 -0.14062,-0.375 -0.32812,-0.375 -0.1875,0 -0.32813,0.15625 -0.32813,0.375 0,2.40625 -1.34375,4.15625 -2.78125,4.15625 l -6.875,0 c -1.59375,0 -2.85937,1.546876 -3.4375,3.6875 -0.57812,-2.140624 -1.84375,-3.6875 -3.4375,-3.6875 l -6.875,0 c -1.4375,0 -2.78125,-1.75 -2.78125,-4.15625 0,-0.21875 -0.14062,-0.375 -0.32812,-0.375 -0.1875,0 -0.32813,0.15625 -0.32813,0.375 0,3.359376 1.4375,6.28125 3.4375,6.28125 l 6.875,0 c 1.59375,0 3.10938,1.75 3.10938,4.15625 0,0.21875 0.14062,0.375 0.32812,0.375 z"
       id="path4921"
       style="fill:#000000;fill-opacity:1;fill-rule:nonzero;stroke:none" />
    <path
       d="m 316.98437,4.066406 0,1.625 -5.45312,2.046875 5.45312,2.046875 0,1.625 -8.01562,0 0,-1.0625 7.04687,0 -5.5,-2.0625 0,-1.09375 5.5,-2.078125 -7.04687,0 0,-1.046875 z m -2.6875,11.964844 c 0,-0.53125 -0.21093,-0.953125 -0.625,-1.265625 -0.41796,-0.304687 -0.98437,-0.453125 -1.70312,-0.453125 -0.71875,0 -1.28906,0.148438 -1.70313,0.453125 -0.40625,0.300781 -0.60937,0.722656 -0.60937,1.265625 0,0.519531 0.20312,0.929688 0.60937,1.234375 0.41407,0.3125 0.98438,0.46875 1.70313,0.46875 0.71875,0 1.28516,-0.15625 1.70312,-0.46875 0.41407,-0.304687 0.625,-0.714844 0.625,-1.234375 z m 0.82813,0 c 0,0.851562 -0.28125,1.523438 -0.84375,2.015625 -0.55469,0.488281 -1.32422,0.734375 -2.3125,0.734375 -0.98047,0 -1.75,-0.246094 -2.3125,-0.734375 -0.5625,-0.492187 -0.84375,-1.164063 -0.84375,-2.015625 0,-0.867188 0.28125,-1.542969 0.84375,-2.03125 0.5625,-0.492188 1.33203,-0.734375 2.3125,-0.734375 0.98828,0 1.75781,0.242187 2.3125,0.734375 0.5625,0.488281 0.84375,1.164062 0.84375,2.03125 z m -1.0625,7.988281 c 0.0625,-0.105469 0.10937,-0.226562 0.14062,-0.359375 0.0312,-0.125 0.0469,-0.265625 0.0469,-0.421875 0,-0.5625 -0.18359,-0.996093 -0.54688,-1.296875 -0.36718,-0.292968 -0.88671,-0.4375 -1.5625,-0.4375 l -3.17187,0 0,-1 6.01562,0 0,1 -0.9375,0 c 0.36329,0.195313 0.63282,0.460938 0.8125,0.796875 0.17579,0.332031 0.26563,0.738281 0.26563,1.21875 0,0.07031 -0.008,0.144531 -0.0156,0.21875 0,0.08203 -0.0117,0.175781 -0.0312,0.28125 z m -1.84375,6.039063 -0.48438,0 0,-4.546875 c -0.67968,0.03906 -1.19531,0.242187 -1.54687,0.609375 -0.35547,0.363281 -0.53125,0.875 -0.53125,1.53125 0,0.382812 0.0469,0.753906 0.14062,1.109375 0.0937,0.351562 0.22657,0.707031 0.40625,1.0625 l -0.92187,0 c -0.15625,-0.355469 -0.27344,-0.71875 -0.34375,-1.09375 -0.082,-0.375 -0.125,-0.75 -0.125,-1.125 0,-0.96875 0.27344,-1.734375 0.82812,-2.296875 0.5625,-0.554688 1.32032,-0.828125 2.28125,-0.828125 0.97657,0 1.75391,0.265625 2.32813,0.796875 0.58203,0.53125 0.875,1.25 0.875,2.15625 0,0.800781 -0.26172,1.4375 -0.78125,1.90625 -0.52344,0.476562 -1.23047,0.71875 -2.125,0.71875 z m 0.29687,-1 c 0.53907,0 0.97266,-0.152344 1.29688,-0.453125 0.32031,-0.292969 0.48437,-0.683594 0.48437,-1.171875 0,-0.554688 -0.15625,-0.996094 -0.46875,-1.328125 -0.3125,-0.324219 -0.75,-0.511719 -1.3125,-0.5625 z m 4.17188,7.285156 -1.70313,0 0,2.03125 -0.76562,0 0,-2.03125 -3.26563,0 c -0.49218,0 -0.80859,0.06641 -0.95312,0.203125 -0.13672,0.132813 -0.20313,0.40625 -0.20313,0.8125 l 0,1.015625 -0.82812,0 0,-1.015625 c 0,-0.761719 0.14062,-1.289063 0.42187,-1.578125 0.28907,-0.292969 0.8125,-0.4375 1.5625,-0.4375 l 3.26563,0 0,-0.71875 0.76562,0 0,0.71875 1.70313,0 z m -4.09375,8.414062 -3.625,0 0,-0.984374 3.59375,0 c 0.57031,0 1,-0.109376 1.28125,-0.328126 0.28125,-0.21875 0.42187,-0.554687 0.42187,-1 0,-0.53125 -0.17187,-0.953124 -0.51562,-1.265624 -0.33594,-0.304688 -0.79297,-0.453126 -1.375,-0.453126 l -3.40625,0 0,-1 8.35937,0 0,1 -3.28125,0 c 0.36329,0.226563 0.63282,0.503907 0.8125,0.828126 0.17579,0.320312 0.26563,0.691406 0.26563,1.109374 0,0.6875 -0.21484,1.207032 -0.64063,1.5625 -0.42968,0.351563 -1.05859,0.53125 -1.89062,0.53125 z m 1.46875,5.59375 c 0.0625,-0.105468 0.10937,-0.226562 0.14062,-0.359374 0.0312,-0.125 0.0469,-0.265626 0.0469,-0.421876 0,-0.5625 -0.18359,-0.996093 -0.54688,-1.296874 -0.36718,-0.292969 -0.88671,-0.4375 -1.5625,-0.4375 l -3.17187,0 0,-1 6.01562,0 0,1 -0.9375,0 c 0.36329,0.195312 0.63282,0.460937 0.8125,0.796874 0.17579,0.332032 0.26563,0.738282 0.26563,1.21875 0,0.07031 -0.008,0.144532 -0.0156,0.21875 0,0.08203 -0.0117,0.175782 -0.0312,0.28125 z m 0.23437,3.226563 c 0,-0.53125 -0.21093,-0.953125 -0.625,-1.265625 -0.41796,-0.304688 -0.98437,-0.453125 -1.70312,-0.453125 -0.71875,0 -1.28906,0.148437 -1.70313,0.453125 -0.40625,0.300781 -0.60937,0.722656 -0.60937,1.265625 0,0.519531 0.20312,0.929687 0.60937,1.234375 0.41407,0.3125 0.98438,0.46875 1.70313,0.46875 0.71875,0 1.28516,-0.15625 1.70312,-0.46875 0.41407,-0.304688 0.625,-0.714844 0.625,-1.234375 z m 0.82813,0 c 0,0.851563 -0.28125,1.523437 -0.84375,2.015625 -0.55469,0.488281 -1.32422,0.734375 -2.3125,0.734375 -0.98047,0 -1.75,-0.246094 -2.3125,-0.734375 -0.5625,-0.492188 -0.84375,-1.164062 -0.84375,-2.015625 0,-0.867187 0.28125,-1.542969 0.84375,-2.03125 0.5625,-0.492187 1.33203,-0.734375 2.3125,-0.734375 0.98828,0 1.75781,0.242188 2.3125,0.734375 0.5625,0.488281 0.84375,1.164063 0.84375,2.03125 z m -3.78125,4.410156 3.64062,0 0,0.984375 -3.60937,0 c -0.5625,0 -0.99219,0.109375 -1.28125,0.328125 -0.28125,0.226563 -0.42188,0.5625 -0.42188,1 0,0.539063 0.16407,0.960938 0.5,1.265625 0.34375,0.3125 0.8125,0.46875 1.40625,0.46875 l 3.40625,0 0,0.984375 -6.01562,0 0,-0.984375 0.92187,0 c -0.36718,-0.242187 -0.63671,-0.523437 -0.8125,-0.84375 -0.17578,-0.3125 -0.26562,-0.679687 -0.26562,-1.09375 0,-0.6875 0.21094,-1.214844 0.64062,-1.578125 0.4375,-0.355469 1.06641,-0.53125 1.89063,-0.53125 z m 3.78125,2.484375 z m -3.07813,8.6875 c 0.71875,0 1.26954,-0.152344 1.65625,-0.453125 0.39454,-0.292969 0.59375,-0.703125 0.59375,-1.234375 0,-0.53125 -0.19921,-0.949218 -0.59375,-1.25 -0.38671,-0.292968 -0.9375,-0.4375 -1.65625,-0.4375 -0.71093,0 -1.26171,0.144532 -1.65625,0.4375 -0.39843,0.300782 -0.59375,0.71875 -0.59375,1.25 0,0.53125 0.19532,0.941406 0.59375,1.234375 0.39454,0.300781 0.94532,0.453125 1.65625,0.453125 z m -2.32812,0.984375 c -1.03125,0 -1.78906,-0.230469 -2.28125,-0.6875 -0.5,-0.449219 -0.75,-1.140625 -0.75,-2.078125 0,-0.355468 0.0273,-0.6875 0.0781,-1 0.0547,-0.304687 0.13282,-0.601562 0.23438,-0.890625 l 0.95312,0 c -0.15625,0.289063 -0.26953,0.578125 -0.34375,0.859375 -0.0703,0.28125 -0.10937,0.570313 -0.10937,0.875 0,0.644532 0.17187,1.128906 0.51562,1.453125 0.33594,0.320313 0.83985,0.484375 1.51563,0.484375 l 0.5,0 c -0.35547,-0.210937 -0.62109,-0.476562 -0.79688,-0.796875 -0.17968,-0.3125 -0.26562,-0.695312 -0.26562,-1.140625 0,-0.742187 0.28125,-1.335937 0.84375,-1.78125 0.5625,-0.449218 1.30469,-0.671875 2.23437,-0.671875 0.92579,0 1.67188,0.222657 2.23438,0.671875 0.5625,0.445313 0.84375,1.039063 0.84375,1.78125 0,0.445313 -0.0898,0.828125 -0.26563,1.140625 -0.16796,0.320313 -0.42968,0.585938 -0.78125,0.796875 l 0.90625,0 0,0.984375 z m 2.875,7.15625 -3.625,0 0,-0.984375 3.59375,0 c 0.57031,0 1,-0.109375 1.28125,-0.328125 0.28125,-0.21875 0.42187,-0.554687 0.42187,-1 0,-0.53125 -0.17187,-0.953125 -0.51562,-1.265625 -0.33594,-0.304687 -0.79297,-0.453125 -1.375,-0.453125 l -3.40625,0 0,-1 8.35937,0 0,1 -3.28125,0 c 0.36329,0.226563 0.63282,0.503907 0.8125,0.828125 0.17579,0.320313 0.26563,0.691406 0.26563,1.109375 0,0.6875 -0.21484,1.207031 -0.64063,1.5625 -0.42968,0.351563 -1.05859,0.53125 -1.89062,0.53125 z m -2.71875,3.078125 -3.1875,0 0,-1 8.29687,0 0,1 -0.90625,0 c 0.35157,0.195313 0.61329,0.453125 0.78125,0.765625 0.17579,0.320313 0.26563,0.707031 0.26563,1.15625 0,0.726563 -0.29297,1.316407 -0.875,1.765625 -0.57422,0.457032 -1.33594,0.6875 -2.28125,0.6875 -0.94922,0 -1.71484,-0.230468 -2.29688,-0.6875 -0.57421,-0.449218 -0.85937,-1.039062 -0.85937,-1.765625 0,-0.449219 0.0859,-0.835937 0.25,-1.15625 0.17578,-0.3125 0.44531,-0.570312 0.8125,-0.765625 z m 2.09375,3.359375 c 0.72656,0 1.29687,-0.152343 1.70312,-0.453125 0.41407,-0.304687 0.625,-0.714844 0.625,-1.234375 0,-0.523437 -0.21093,-0.933593 -0.625,-1.234375 -0.40625,-0.292968 -0.97656,-0.4375 -1.70312,-0.4375 -0.73047,0 -1.30469,0.144532 -1.71875,0.4375 -0.40625,0.300782 -0.60938,0.710938 -0.60938,1.234375 0,0.519531 0.20313,0.929688 0.60938,1.234375 0.41406,0.300782 0.98828,0.453125 1.71875,0.453125 z m -0.625,2.6875 3.64062,0 0,0.984375 -3.60937,0 c -0.5625,0 -0.99219,0.109375 -1.28125,0.328125 -0.28125,0.226563 -0.42188,0.5625 -0.42188,1 0,0.539063 0.16407,0.960938 0.5,1.265625 0.34375,0.3125 0.8125,0.46875 1.40625,0.46875 l 3.40625,0 0,0.984375 -6.01562,0 0,-0.984375 0.92187,0 c -0.36718,-0.242187 -0.63671,-0.523437 -0.8125,-0.84375 -0.17578,-0.3125 -0.26562,-0.679687 -0.26562,-1.09375 0,-0.6875 0.21094,-1.214844 0.64062,-1.578125 0.4375,-0.355469 1.06641,-0.53125 1.89063,-0.53125 z m 3.78125,2.484375 z m 1.5625,5.703125 -1.70313,0 0,2.03125 -0.76562,0 0,-2.03125 -3.26563,0 c -0.49218,0 -0.80859,0.06641 -0.95312,0.203125 -0.13672,0.132813 -0.20313,0.40625 -0.20313,0.8125 l 0,1.015625 -0.82812,0 0,-1.015625 c 0,-0.761718 0.14062,-1.289062 0.42187,-1.578125 0.28907,-0.292969 0.8125,-0.4375 1.5625,-0.4375 l 3.26563,0 0,-0.71875 0.76562,0 0,0.71875 1.70313,0 z m -4.26563,2.914063 0,2.906246 -0.875,0 0,-2.906246 z m 4.90625,7.593746 -0.82812,0 0,-0.9375 c 0,-0.35546 -0.0742,-0.60546 -0.21875,-0.75 -0.13672,-0.13671 -0.39063,-0.20312 -0.76563,-0.20312 l -0.53125,0 0,1.625 -0.76562,0 0,-1.625 -5.25,0 0,-0.98438 5.25,0 0,-0.95312 0.76562,0 0,0.95312 0.42188,0 c 0.66406,0 1.14844,0.14844 1.45312,0.45313 0.3125,0.3125 0.46875,0.80469 0.46875,1.48437 z M 312,108.74609 c 0,-0.79296 -0.0937,-1.34375 -0.28125,-1.65625 -0.1875,-0.30468 -0.5,-0.45312 -0.9375,-0.45312 -0.34375,0 -0.62109,0.11328 -0.82813,0.34375 -0.21093,0.22656 -0.3125,0.53906 -0.3125,0.9375 0,0.55078 0.19141,0.98828 0.57813,1.3125 0.39453,0.33203 0.91016,0.5 1.54687,0.5 l 0.23438,0 z m 0.40625,1.96875 -3.4375,0 0,-0.98437 0.90625,0 c -0.36719,-0.21875 -0.63672,-0.5 -0.8125,-0.84375 -0.16406,-0.33594 -0.25,-0.74609 -0.25,-1.23438 0,-0.61718 0.17187,-1.10546 0.51562,-1.46875 0.34375,-0.36718 0.80469,-0.54687 1.39063,-0.54687 0.67578,0 1.1875,0.22266 1.53125,0.67187 0.34375,0.45704 0.51562,1.14063 0.51562,2.04688 l 0,1.375 0.0937,0 c 0.45704,0 0.8125,-0.15234 1.0625,-0.45313 0.25,-0.29296 0.375,-0.71093 0.375,-1.25 0,-0.34375 -0.043,-0.68359 -0.125,-1.01562 -0.0859,-0.32422 -0.21093,-0.63672 -0.375,-0.9375 l 0.90625,0 c 0.14454,0.36328 0.25,0.71875 0.3125,1.0625 0.0703,0.34375 0.10938,0.67187 0.10938,0.98437 0,0.875 -0.22656,1.52344 -0.67188,1.95313 -0.44921,0.42578 -1.13281,0.64062 -2.04687,0.64062 z m 2.57812,2.16407 0,1 -6.01562,0 0,-1 z m 2.34375,0 0,1 -1.25,0 0,-1 z m -3.26562,6.58984 c 0.0625,-0.10547 0.10937,-0.22656 0.14062,-0.35937 0.0312,-0.125 0.0469,-0.26563 0.0469,-0.42188 0,-0.5625 -0.18359,-0.99609 -0.54688,-1.29687 -0.36718,-0.29297 -0.88671,-0.4375 -1.5625,-0.4375 l -3.17187,0 0,-1 6.01562,0 0,1 -0.9375,0 c 0.36329,0.19531 0.63282,0.46093 0.8125,0.79687 0.17579,0.33203 0.26563,0.73828 0.26563,1.21875 0,0.0703 -0.008,0.14453 -0.0156,0.21875 0,0.082 -0.0117,0.17578 -0.0312,0.28125 z"
       id="path4923"
       style="fill:#000000;fill-opacity:1;fill-rule:nonzero;stroke:none" />
    <path
       d="m 214.67969,105.98828 1.625,0 2.04687,5.45313 2.04688,-5.45313 1.625,0 0,8.01563 -1.0625,0 0,-7.04688 -2.0625,5.5 -1.09375,0 -2.07813,-5.5 0,7.04688 -1.04687,0 z m 11.96875,2.6875 c -0.53125,0 -0.95313,0.21094 -1.26563,0.625 -0.30469,0.41797 -0.45312,0.98438 -0.45312,1.70313 0,0.71875 0.14843,1.28906 0.45312,1.70312 0.30078,0.40625 0.72266,0.60938 1.26563,0.60938 0.51953,0 0.92968,-0.20313 1.23437,-0.60938 0.3125,-0.41406 0.46875,-0.98437 0.46875,-1.70312 0,-0.71875 -0.15625,-1.28516 -0.46875,-1.70313 -0.30469,-0.41406 -0.71484,-0.625 -1.23437,-0.625 z m 0,-0.82812 c 0.85156,0 1.52343,0.28125 2.01562,0.84375 0.48828,0.55468 0.73438,1.32422 0.73438,2.3125 0,0.98047 -0.2461,1.75 -0.73438,2.3125 -0.49219,0.5625 -1.16406,0.84375 -2.01562,0.84375 -0.86719,0 -1.54297,-0.28125 -2.03125,-0.84375 -0.49219,-0.5625 -0.73438,-1.33203 -0.73438,-2.3125 0,-0.98828 0.24219,-1.75782 0.73438,-2.3125 0.48828,-0.5625 1.16406,-0.84375 2.03125,-0.84375 z m 7.98437,1.0625 c -0.10547,-0.0625 -0.22656,-0.10938 -0.35937,-0.14063 -0.125,-0.0312 -0.26563,-0.0469 -0.42188,-0.0469 -0.5625,0 -0.99609,0.18359 -1.29687,0.54687 -0.29297,0.36719 -0.4375,0.88672 -0.4375,1.5625 l 0,3.17188 -1,0 0,-6.01563 1,0 0,0.9375 c 0.19531,-0.36328 0.46093,-0.63281 0.79687,-0.8125 0.33203,-0.17578 0.73828,-0.26562 1.21875,-0.26562 0.0703,0 0.14453,0.008 0.21875,0.0156 0.082,0 0.17578,0.0117 0.28125,0.0312 z m 6.04297,1.84375 0,0.48437 -4.54687,0 c 0.0391,0.67969 0.24218,1.19531 0.60937,1.54688 0.36328,0.35547 0.875,0.53125 1.53125,0.53125 0.38281,0 0.75391,-0.0469 1.10938,-0.14063 0.35156,-0.0937 0.70703,-0.22656 1.0625,-0.40625 l 0,0.92188 c -0.35547,0.15625 -0.71875,0.27343 -1.09375,0.34375 -0.375,0.082 -0.75,0.125 -1.125,0.125 -0.96875,0 -1.73438,-0.27344 -2.29688,-0.82813 -0.55469,-0.5625 -0.82812,-1.32031 -0.82812,-2.28125 0,-0.97656 0.26562,-1.7539 0.79687,-2.32812 0.53125,-0.58203 1.25,-0.875 2.15625,-0.875 0.80078,0 1.4375,0.26172 1.90625,0.78125 0.47656,0.52343 0.71875,1.23047 0.71875,2.125 z m -1,-0.29688 c 0,-0.53906 -0.15234,-0.97265 -0.45312,-1.29687 -0.29297,-0.32032 -0.6836,-0.48438 -1.17188,-0.48438 -0.55469,0 -0.99609,0.15625 -1.32812,0.46875 -0.32422,0.3125 -0.51172,0.75 -0.5625,1.3125 z m 10.26953,-1.5625 0,-3.25 0.98438,0 0,8.35938 -0.98438,0 0,-0.90625 c -0.21094,0.36718 -0.47656,0.63672 -0.79687,0.8125 -0.3125,0.16406 -0.69532,0.25 -1.14063,0.25 -0.71875,0 -1.30859,-0.28516 -1.76562,-0.85938 -0.46094,-0.58203 -0.6875,-1.34765 -0.6875,-2.29687 0,-0.94532 0.22656,-1.70703 0.6875,-2.28125 0.45703,-0.58203 1.04687,-0.875 1.76562,-0.875 0.44531,0 0.82813,0.0898 1.14063,0.26562 0.32031,0.16797 0.58593,0.42969 0.79687,0.78125 z m -3.375,2.10938 c 0,0.73047 0.14844,1.30468 0.45313,1.71875 0.30078,0.40625 0.71093,0.60937 1.23437,0.60937 0.51953,0 0.92969,-0.20312 1.23438,-0.60937 0.30078,-0.41407 0.45312,-0.98828 0.45312,-1.71875 0,-0.72657 -0.15234,-1.29688 -0.45312,-1.70313 -0.30469,-0.41406 -0.71485,-0.625 -1.23438,-0.625 -0.52344,0 -0.93359,0.21094 -1.23437,0.625 -0.30469,0.40625 -0.45313,0.97656 -0.45313,1.70313 z m 11.67188,-0.25 0,0.48437 -4.54688,0 c 0.0391,0.67969 0.24219,1.19531 0.60938,1.54688 0.36328,0.35547 0.875,0.53125 1.53125,0.53125 0.38281,0 0.7539,-0.0469 1.10937,-0.14063 0.35156,-0.0937 0.70703,-0.22656 1.0625,-0.40625 l 0,0.92188 c -0.35547,0.15625 -0.71875,0.27343 -1.09375,0.34375 -0.375,0.082 -0.75,0.125 -1.125,0.125 -0.96875,0 -1.73437,-0.27344 -2.29687,-0.82813 -0.55469,-0.5625 -0.82813,-1.32031 -0.82813,-2.28125 0,-0.97656 0.26563,-1.7539 0.79688,-2.32812 0.53125,-0.58203 1.25,-0.875 2.15625,-0.875 0.80078,0 1.4375,0.26172 1.90625,0.78125 0.47656,0.52343 0.71875,1.23047 0.71875,2.125 z m -1,-0.29688 c 0,-0.53906 -0.15235,-0.97265 -0.45313,-1.29687 -0.29297,-0.32032 -0.68359,-0.48438 -1.17187,-0.48438 -0.55469,0 -0.9961,0.15625 -1.32813,0.46875 -0.32422,0.3125 -0.51172,0.75 -0.5625,1.3125 z m 2.73437,-4.8125 1,0 0,8.35938 -1,0 z m 5.83985,5.32813 c -0.79297,0 -1.34375,0.0937 -1.65625,0.28125 -0.30469,0.1875 -0.45313,0.5 -0.45313,0.9375 0,0.34375 0.11328,0.62109 0.34375,0.82812 0.22656,0.21094 0.53906,0.3125 0.9375,0.3125 0.55078,0 0.98828,-0.1914 1.3125,-0.57812 0.33203,-0.39453 0.5,-0.91016 0.5,-1.54688 l 0,-0.23437 z m 1.96875,-0.40625 0,3.4375 -0.98438,0 0,-0.90625 c -0.21875,0.36718 -0.5,0.63672 -0.84375,0.8125 -0.33594,0.16406 -0.74609,0.25 -1.23437,0.25 -0.61719,0 -1.10547,-0.17188 -1.46875,-0.51563 -0.36719,-0.34375 -0.54688,-0.80469 -0.54688,-1.39062 0,-0.67578 0.22266,-1.1875 0.67188,-1.53125 0.45703,-0.34375 1.14062,-0.51563 2.04687,-0.51563 l 1.375,0 0,-0.0937 c 0,-0.45703 -0.15234,-0.8125 -0.45312,-1.0625 -0.29297,-0.25 -0.71094,-0.375 -1.25,-0.375 -0.34375,0 -0.6836,0.043 -1.01563,0.125 -0.32422,0.0859 -0.63672,0.21094 -0.9375,0.375 l 0,-0.90625 c 0.36328,-0.14453 0.71875,-0.25 1.0625,-0.3125 0.34375,-0.0703 0.67188,-0.10937 0.98438,-0.10937 0.875,0 1.52343,0.22656 1.95312,0.67187 0.42578,0.44922 0.64063,1.13281 0.64063,2.04688 z m 4.67968,4 c -0.28125,0.71875 -0.55859,1.17968 -0.82812,1.39062 -0.26172,0.21875 -0.61719,0.32813 -1.0625,0.32813 l -0.78125,0 0,-0.8125 0.57812,0 c 0.26953,0 0.47657,-0.0703 0.625,-0.20313 0.15625,-0.125 0.32032,-0.42969 0.5,-0.90625 l 0.1875,-0.45312 -2.4375,-5.92188 1.04688,0 1.875,4.70313 1.89062,-4.70313 1.04688,0 z m 3.41797,-4.01563 2.90625,0 0,0.875 -2.90625,0 z m 7.59375,-4.90625 0,0.82813 -0.9375,0 c -0.35547,0 -0.60547,0.0742 -0.75,0.21875 -0.13672,0.13672 -0.20312,0.39062 -0.20312,0.76562 l 0,0.53125 1.625,0 0,0.76563 -1.625,0 0,5.25 -0.98438,0 0,-5.25 -0.95312,0 0,-0.76563 0.95312,0 0,-0.42187 c 0,-0.66407 0.14844,-1.14844 0.45313,-1.45313 0.3125,-0.3125 0.80468,-0.46875 1.48437,-0.46875 z m 3.625,5.32813 c -0.79297,0 -1.34375,0.0937 -1.65625,0.28125 -0.30469,0.1875 -0.45312,0.5 -0.45312,0.9375 0,0.34375 0.11328,0.62109 0.34375,0.82812 0.22656,0.21094 0.53906,0.3125 0.9375,0.3125 0.55078,0 0.98828,-0.1914 1.3125,-0.57812 0.33203,-0.39453 0.5,-0.91016 0.5,-1.54688 l 0,-0.23437 z m 1.96875,-0.40625 0,3.4375 -0.98437,0 0,-0.90625 c -0.21875,0.36718 -0.5,0.63672 -0.84375,0.8125 -0.33594,0.16406 -0.7461,0.25 -1.23438,0.25 -0.61719,0 -1.10547,-0.17188 -1.46875,-0.51563 -0.36719,-0.34375 -0.54687,-0.80469 -0.54687,-1.39062 0,-0.67578 0.22265,-1.1875 0.67187,-1.53125 0.45703,-0.34375 1.14063,-0.51563 2.04688,-0.51563 l 1.375,0 0,-0.0937 c 0,-0.45703 -0.15235,-0.8125 -0.45313,-1.0625 -0.29297,-0.25 -0.71094,-0.375 -1.25,-0.375 -0.34375,0 -0.68359,0.043 -1.01562,0.125 -0.32422,0.0859 -0.63672,0.21094 -0.9375,0.375 l 0,-0.90625 c 0.36328,-0.14453 0.71875,-0.25 1.0625,-0.3125 0.34375,-0.0703 0.67187,-0.10937 0.98437,-0.10937 0.875,0 1.52344,0.22656 1.95313,0.67187 0.42578,0.44922 0.64062,1.13281 0.64062,2.04688 z m 2.16406,-2.57813 1,0 0,6.01563 -1,0 z m 0,-2.34375 1,0 0,1.25 -1,0 z m 6.58985,3.26563 c -0.10547,-0.0625 -0.22656,-0.10938 -0.35938,-0.14063 -0.125,-0.0312 -0.26562,-0.0469 -0.42187,-0.0469 -0.5625,0 -0.9961,0.18359 -1.29688,0.54687 -0.29297,0.36719 -0.4375,0.88672 -0.4375,1.5625 l 0,3.17188 -1,0 0,-6.01563 1,0 0,0.9375 c 0.19532,-0.36328 0.46094,-0.63281 0.79688,-0.8125 0.33203,-0.17578 0.73828,-0.26562 1.21875,-0.26562 0.0703,0 0.14453,0.008 0.21875,0.0156 0.082,0 0.17578,0.0117 0.28125,0.0312 z"
       id="path4925"
       style="fill:#000000;fill-opacity:1;fill-rule:nonzero;stroke:none" />
    <path
       d="m 33.226562,25.933594 1.328126,1.1875 4.125,-4.53125 -1.703126,-1 0.65625,-0.734375 1.6875,1 0.8125,0.734375 -4.78125,5.265625 1.296876,1.1875 -0.609376,0.671875 -3.421874,-3.109375 z m 6.386719,2.34375 2.15625,1.953125 -0.59375,0.65625 -2.15625,-1.953125 z m 6.292969,3.316406 c -0.40625,-0.363281 -0.851562,-0.5 -1.328125,-0.40625 -0.511719,0.105469 -0.996094,0.40625 -1.453125,0.90625 -0.480469,0.53125 -0.746094,1.046875 -0.796875,1.546875 -0.05469,0.507813 0.125,0.945313 0.53125,1.3125 0.382813,0.351563 0.828125,0.484375 1.328125,0.390625 0.5,-0.09375 0.988281,-0.40625 1.46875,-0.9375 0.445312,-0.492188 0.707031,-1 0.78125,-1.53125 0.03906,-0.488281 -0.136719,-0.914062 -0.53125,-1.28125 z m 0.53125,-0.578125 2.421875,2.21875 -0.65625,0.734375 -0.8125,-0.75 c -0.105469,0.675781 -0.421875,1.304688 -0.953125,1.890625 -0.65625,0.71875 -1.355469,1.117187 -2.09375,1.203125 -0.742188,0.08203 -1.429688,-0.164062 -2.0625,-0.734375 -0.648438,-0.585937 -0.953125,-1.246094 -0.921875,-1.984375 0.0078,-0.75 0.34375,-1.484375 1,-2.203125 0.664063,-0.726563 1.367187,-1.132813 2.109375,-1.21875 0.601562,-0.07031 1.257812,0.210937 1.96875,0.84375 z"
       id="path4927"
       style="fill:#000000;fill-opacity:1;fill-rule:nonzero;stroke:none" />
    <path
       d="m 54.554688,42.132812 -0.328126,0.359376 -3.359374,-3.046876 c -0.429688,0.523438 -0.625,1.03125 -0.59375,1.53125 0.03125,0.507813 0.289062,0.988282 0.78125,1.4375 0.28125,0.257813 0.582031,0.472657 0.90625,0.640626 0.332031,0.164062 0.6875,0.304687 1.0625,0.421874 l -0.625,0.671876 c -0.367188,-0.125 -0.714844,-0.289063 -1.046876,-0.484376 -0.335937,-0.1875 -0.636718,-0.40625 -0.90625,-0.65625 -0.71875,-0.65625 -1.101562,-1.382812 -1.140624,-2.171874 -0.03125,-0.78125 0.273437,-1.523438 0.921874,-2.234376 0.65625,-0.71875 1.375,-1.113281 2.15625,-1.1875 0.78125,-0.07031 1.507813,0.195313 2.1875,0.796876 0.59375,0.542968 0.890626,1.167968 0.890626,1.875 0,0.695312 -0.304688,1.378906 -0.90625,2.046874 z m -0.53125,-0.890624 c 0.363281,-0.398438 0.539062,-0.8125 0.53125,-1.25 -0.01172,-0.4375 -0.195313,-0.820313 -0.546876,-1.15625 -0.417968,-0.363282 -0.851562,-0.539063 -1.296874,-0.53125 -0.449219,0 -0.882813,0.195312 -1.296876,0.578124 z m 5.253906,-1.726563 0.734375,0.671875 -5.625,6.1875 -0.734375,-0.671875 z m 2.300781,2.089844 0.734375,0.671875 -5.625,6.1875 -0.734375,-0.671875 z m 0.71875,3.824219 0.734375,0.671874 -4.046875,4.453126 L 58.25,49.882812 z m 1.578125,-1.734376 0.734375,0.671876 -0.84375,0.921874 -0.734375,-0.671874 z m -1.996094,8.261719 -2.140625,2.359375 -0.75,-0.671875 5.578125,-6.140625 0.75,0.671875 -0.609375,0.671875 c 0.382813,-0.125 0.75,-0.144531 1.09375,-0.0625 0.351563,0.08594 0.695313,0.277344 1.03125,0.578125 0.539063,0.492188 0.78125,1.105469 0.71875,1.84375 -0.05469,0.726563 -0.398437,1.441407 -1.03125,2.140625 -0.636719,0.695313 -1.320312,1.109375 -2.046875,1.234375 -0.71875,0.125 -1.351562,-0.05859 -1.890625,-0.546875 -0.335937,-0.304687 -0.5625,-0.625 -0.6875,-0.96875 -0.117187,-0.335937 -0.121093,-0.703125 -0.01563,-1.109375 z m 3.890625,0.71875 c 0.488281,-0.542969 0.757813,-1.0625 0.8125,-1.5625 0.05078,-0.507812 -0.117187,-0.941406 -0.5,-1.296875 -0.386719,-0.351562 -0.828125,-0.476562 -1.328125,-0.375 -0.492187,0.105469 -0.980468,0.429688 -1.46875,0.96875 -0.492187,0.542969 -0.765625,1.0625 -0.828125,1.5625 -0.05469,0.5 0.113281,0.925782 0.5,1.28125 0.382813,0.351563 0.828125,0.476563 1.328125,0.375 0.5,-0.09375 0.992188,-0.414062 1.484375,-0.953125 z m 6.820313,2.34375 -0.640625,0.703125 c -0.105469,-0.300781 -0.25,-0.578125 -0.4375,-0.828125 -0.179688,-0.25 -0.386719,-0.484375 -0.625,-0.703125 -0.367188,-0.332031 -0.6875,-0.523437 -0.96875,-0.578125 -0.28125,-0.05078 -0.523438,0.03125 -0.71875,0.25 -0.15625,0.167969 -0.214844,0.359375 -0.171875,0.578125 0.05078,0.210938 0.226562,0.542969 0.53125,1 l 0.203125,0.265625 c 0.425781,0.59375 0.65625,1.085938 0.6875,1.484375 0.03125,0.394532 -0.121094,0.773438 -0.453125,1.140625 -0.367188,0.40625 -0.824219,0.582031 -1.375,0.53125 -0.542969,-0.05469 -1.105469,-0.34375 -1.6875,-0.875 -0.242188,-0.210937 -0.46875,-0.453125 -0.6875,-0.734375 -0.21875,-0.28125 -0.429688,-0.59375 -0.625,-0.9375 l 0.6875,-0.75 c 0.144531,0.375 0.316406,0.710938 0.515625,1.015625 0.195312,0.3125 0.425781,0.585938 0.6875,0.828125 0.34375,0.300782 0.660156,0.476563 0.953125,0.53125 0.300781,0.05078 0.546875,-0.02734 0.734375,-0.234375 0.175781,-0.199219 0.242187,-0.414062 0.203125,-0.640625 -0.03125,-0.230468 -0.230469,-0.601562 -0.59375,-1.109375 l -0.203125,-0.296875 c -0.367188,-0.5 -0.558594,-0.9375 -0.578125,-1.3125 -0.02344,-0.382812 0.125,-0.75 0.4375,-1.09375 0.375,-0.414062 0.8125,-0.601562 1.3125,-0.5625 0.507812,0.03125 1.039062,0.296875 1.59375,0.796875 0.269531,0.25 0.503906,0.507813 0.703125,0.765625 0.207031,0.25 0.378906,0.507813 0.515625,0.765625 z m 3.542968,6.726563 -0.328124,0.359375 -3.359376,-3.046875 c -0.429687,0.523437 -0.625,1.03125 -0.59375,1.53125 0.03125,0.507812 0.289063,0.988281 0.78125,1.4375 0.28125,0.257812 0.582032,0.472656 0.90625,0.640625 0.332032,0.164062 0.6875,0.304687 1.0625,0.421875 l -0.625,0.671875 c -0.367187,-0.125 -0.714843,-0.289063 -1.046874,-0.484375 -0.335938,-0.1875 -0.636719,-0.40625 -0.90625,-0.65625 -0.71875,-0.65625 -1.101563,-1.382813 -1.140626,-2.171875 -0.03125,-0.78125 0.273438,-1.523438 0.921876,-2.234375 0.65625,-0.71875 1.375,-1.113282 2.15625,-1.1875 0.78125,-0.07031 1.507812,0.195312 2.1875,0.796875 0.59375,0.542969 0.890624,1.167969 0.890624,1.875 0,0.695312 -0.304687,1.378906 -0.90625,2.046875 z m -0.53125,-0.890625 c 0.363282,-0.398438 0.539063,-0.8125 0.53125,-1.25 -0.01172,-0.4375 -0.195312,-0.820313 -0.546874,-1.15625 -0.417969,-0.363281 -0.851563,-0.539063 -1.296876,-0.53125 -0.449218,0 -0.882812,0.195312 -1.296874,0.578125 z"
       id="path4929"
       style="fill:#000000;fill-opacity:1;fill-rule:nonzero;stroke:none" />
  </g>
</svg>
